<svg width="94" height="51" viewBox="0 0 94 51" fill="none" xmlns="http://www.w3.org/2000/svg">
<g clip-path="url(#clip0_240_5)">
<path d="M22.05 5H18.7C17.3333 5 16.3333 5.31666 15.7 5.95C15.0667 6.55 14.75 7.76666 14.75 9.6V17.95C14.75 20.25 14.25 22.0333 13.25 23.3C12.2167 24.5667 11.3333 25.3833 10.6 25.75C11.3333 26.1167 12.2 26.9 13.2 28.1C14.2333 29.3 14.75 31 14.75 33.2V41.55C14.75 43.3833 15.05 44.6 15.65 45.2C16.2833 45.8 17.3 46.1 18.7 46.1H22.05V50H17.75C16.2833 50 15.0667 49.85 14.1 49.55C13.1667 49.25 12.4 48.7667 11.8 48.1C11.2333 47.4667 10.8333 46.6333 10.6 45.6C10.3667 44.6 10.25 43.4 10.25 42V33.6C10.25 31.8 9.8 30.2833 8.9 29.05C8 27.7833 6.45 26.8167 4.25 26.15V25.35C6.45 24.65 8 23.65 8.9 22.35C9.8 21.0833 10.25 19.5167 10.25 17.65V9.1C10.25 7.7 10.3667 6.5 10.6 5.5C10.8333 4.5 11.2333 3.68333 11.8 3.05C12.4 2.38333 13.1667 1.9 14.1 1.6C15.0667 1.26666 16.2833 1.1 17.75 1.1H22.05V5ZM71.7559 1.1H76.0559C77.5225 1.1 78.7225 1.26666 79.6559 1.6C80.6225 1.9 81.3892 2.38333 81.9559 3.05C82.5559 3.68333 82.9725 4.5 83.2059 5.5C83.4392 6.5 83.5559 7.7 83.5559 9.1V17.65C83.5559 19.5167 84.0059 21.0833 84.9059 22.35C85.8059 23.65 87.3559 24.65 89.5559 25.35V26.15C87.3559 26.8167 85.8059 27.7833 84.9059 29.05C84.0059 30.2833 83.5559 31.8 83.5559 33.6V42C83.5559 43.4 83.4392 44.6 83.2059 45.6C82.9725 46.6333 82.5559 47.4667 81.9559 48.1C81.3892 48.7667 80.6225 49.25 79.6559 49.55C78.7225 49.85 77.5225 50 76.0559 50H71.7559V46.1H75.1059C76.5059 46.1 77.5059 45.8 78.1059 45.2C78.7392 44.6 79.0559 43.3833 79.0559 41.55V33.2C79.0559 31 79.5559 29.3 80.5559 28.1C81.5892 26.9 82.4725 26.1167 83.2059 25.75C82.4725 25.3833 81.6059 24.5667 80.6059 23.3C79.5725 22.0333 79.0559 20.25 79.0559 17.95V9.6C79.0559 7.76666 78.7392 6.55 78.1059 5.95C77.4725 5.31666 76.4725 5 75.1059 5H71.7559V1.1Z" fill="white"/>
<path d="M37.1 8V12.5H21.75V22.95H34.95V27.45H21.75V43H16.75V8H37.1ZM47.9672 8L59.9672 33.05L71.9672 8H76.7672V43H71.8672V18.35L62.2672 38.5H57.6672L48.0672 18.35V43H43.1672V8H47.9672Z" fill="white"/>
</g>
<defs>
<clipPath id="clip0_240_5">
<rect width="94" height="51" fill="white"/>
</clipPath>
</defs>
</svg>
