<svg width="141" height="146" viewBox="0 0 141 146" fill="none" xmlns="http://www.w3.org/2000/svg">
<path d="M141 36.4437C141 36.233 140.979 36.0224 140.957 35.8045V19.0391C140.986 18.8284 141 18.6177 141 18.3998C141 18.1819 140.979 17.9785 140.957 17.7606V17.3538H140.894C138.889 7.54734 108.69 0 70.5 0C32.3095 0 2.11146 7.54734 0.106281 17.3611H0V126.845H0.0637688C0.0283417 127.099 0 127.346 0 127.6C0 137.922 30.9704 146 70.5 146C110.03 146 141 137.915 141 127.6C141 127.346 140.979 127.092 140.936 126.845H140.95V109.164C140.979 108.953 140.993 108.743 140.993 108.525C140.993 108.307 140.972 108.103 140.95 107.886V92.5003C140.979 92.2897 140.993 92.079 140.993 91.8611C140.993 91.6432 140.972 91.4398 140.95 91.2218V73.1053C140.979 72.8947 140.993 72.684 140.993 72.4661C140.993 72.2482 140.972 72.0448 140.95 71.8269V55.0614C140.979 54.8508 140.993 54.6401 140.993 54.4222C140.993 54.2043 140.972 54.0009 140.95 53.783V37.0466C140.979 36.836 140.993 36.6253 140.993 36.4074L141 36.4437ZM70.5 0.726404C108.194 0.726404 138.995 8.33186 140.249 17.8042V19.0027C139.866 21.9084 136.692 24.6469 131.385 27.0368C119.255 21.6105 96.7657 18.0439 70.5 18.0439C44.2343 18.0439 21.7452 21.6105 9.61492 27.0368C3.94658 24.4798 0.708543 21.5379 0.708543 18.3998C0.708543 8.65874 32.019 0.726404 70.5 0.726404ZM131.385 63.0809C121.572 58.6935 104.985 55.5191 85.096 54.4658C105.006 53.4125 121.614 50.2309 131.421 45.8361C136.699 48.226 139.859 50.95 140.242 53.8556V55.0542C139.859 57.9598 136.685 60.6983 131.378 63.0882L131.385 63.0809ZM140.249 57.2043V69.7421C139.002 67.483 136.239 65.3691 132.235 63.4732C136.246 61.5773 139.002 59.4635 140.249 57.2043ZM70.5 36.8069C71.4849 36.8069 72.4697 36.8069 73.4475 36.7924C97.7222 37.0466 118.837 40.4607 130.542 45.4511C118.837 50.4415 97.7293 53.8483 73.4475 54.1099C72.4697 54.1026 71.492 54.0953 70.5 54.0953C69.508 54.0953 68.5303 54.0953 67.5525 54.1099C43.2778 53.8556 22.1632 50.4415 10.4652 45.4511C22.1703 40.4607 43.2778 37.0539 67.5525 36.7924C68.5303 36.7996 69.508 36.8069 70.5 36.8069ZM10.5006 27.4218C22.6875 22.2425 45.0137 18.763 70.5 18.763C95.9863 18.763 118.312 22.2425 130.499 27.4218C118.787 32.3976 97.701 35.8045 73.4475 36.0587C72.4697 36.0514 71.492 36.0442 70.5 36.0442C69.508 36.0442 68.5303 36.0442 67.5525 36.0587C43.299 35.8045 22.2128 32.3976 10.5006 27.4218ZM70.5 54.8435C71.4849 54.8435 72.4697 54.8435 73.4475 54.829C97.701 55.0832 118.787 58.4901 130.499 63.4659C118.312 68.6452 95.9863 72.1247 70.5 72.1247C45.0137 72.1247 22.6875 68.6452 10.5006 63.4659C22.2128 58.4901 43.299 55.0832 67.5525 54.829C68.5303 54.8363 69.508 54.8435 70.5 54.8435ZM132.271 45.4439C136.26 43.5479 139.009 41.4414 140.249 39.1895V51.6909C139.009 49.4391 136.26 47.3325 132.271 45.4366V45.4439ZM131.428 45.0516C121.621 40.6568 105.013 37.4752 85.1031 36.4219C104.992 35.3686 121.579 32.1942 131.392 27.8068C136.699 30.1966 139.866 32.9279 140.256 35.8408V37.0394C139.873 39.945 136.713 42.669 131.435 45.0589L131.428 45.0516ZM132.235 27.4145C136.246 25.5186 139.002 23.4047 140.249 21.1456V33.6834C139.002 31.4242 136.239 29.3104 132.235 27.4145ZM0.708543 21.0657C1.92724 23.3539 4.71181 25.4968 8.76467 27.4218C4.70472 29.3467 1.92724 31.4824 0.708543 33.7778V21.073V21.0657ZM9.61492 27.8068C19.4282 32.1942 36.0152 35.3686 55.904 36.4219C35.994 37.4752 19.3857 40.6568 9.5795 45.0516C3.93241 42.5019 0.708543 39.56 0.708543 36.4364C0.708543 33.3129 3.94658 30.3564 9.61492 27.8068ZM0.708543 39.1096C1.92724 41.3905 4.69055 43.5261 8.72925 45.4439C4.69055 47.3616 1.92724 49.4972 0.708543 51.7781V39.1023V39.1096ZM9.5795 45.8361C19.3857 50.2309 35.994 53.4125 55.904 54.4658C36.0152 55.5191 19.4282 58.6935 9.61492 63.0809C3.94658 60.524 0.708543 57.5821 0.708543 54.4513C0.708543 51.3205 3.93241 48.3858 9.5795 45.8361ZM0.708543 57.1172C1.92724 59.4053 4.71181 61.5482 8.76467 63.4732C4.70472 65.3982 1.92724 67.5338 0.708543 69.8292V57.1244V57.1172ZM9.61492 63.8582C21.7452 69.2844 44.2272 72.8511 70.5 72.8511C96.7728 72.8511 119.255 69.2772 131.385 63.8582C136.692 66.2481 139.859 68.9793 140.249 71.8922V73.0908C139.831 76.2797 136.061 79.2507 129.812 81.8004C117.37 76.7591 95.6745 73.4758 70.5 73.4758C45.3255 73.4758 23.637 76.7519 11.195 81.8004C4.55593 79.0982 0.708543 75.9092 0.708543 72.4951C0.708543 69.3643 3.94658 66.4151 9.61492 63.8655V63.8582ZM130.202 117.685C120.743 113.762 105.729 110.886 87.8239 109.745C107.507 108.496 123.697 105.14 132.852 100.6C137.273 102.823 139.902 105.307 140.249 107.936V109.135C139.838 112.259 136.217 115.179 130.202 117.685ZM140.249 111.285V124.854C138.889 122.392 135.728 120.096 131.102 118.07C135.721 116.043 138.889 113.748 140.249 111.285ZM70.5 90.895C71.5061 90.895 72.5052 90.895 73.5042 90.8804C98.8417 91.1565 120.722 94.8611 132.044 100.215C121.756 105.074 102.767 108.576 80.3842 109.382C77.1603 109.266 73.8585 109.208 70.5 109.208C67.1415 109.208 63.8397 109.266 60.6158 109.382C38.2401 108.576 19.244 105.067 8.95598 100.215C20.2856 94.8684 42.1654 91.1565 67.4958 90.8804C68.4877 90.8877 69.4939 90.895 70.5 90.895ZM12.1728 82.1854C24.6644 77.3838 46.1403 74.2022 70.5 74.2022C94.8597 74.2022 116.343 77.3838 128.827 82.1854C116.853 86.7908 96.6169 89.8998 73.4971 90.154C72.5052 90.1468 71.499 90.1395 70.4929 90.1395C69.4868 90.1395 68.4877 90.1395 67.4887 90.154C44.376 89.9071 24.133 86.798 12.1586 82.1854H12.1728ZM70.5 110.283C73.8656 110.283 77.1603 110.225 80.3842 110.108C100.861 110.849 118.511 113.842 129.238 118.07C116.81 122.966 95.1219 126.213 70.4929 126.213C45.864 126.213 24.1755 122.966 11.7476 118.07C22.4821 113.842 40.1248 110.842 60.6017 110.108C63.8255 110.225 67.1273 110.283 70.4858 110.283H70.5ZM133.617 100.207C136.876 98.4931 139.151 96.619 140.242 94.6287V105.786C139.144 103.796 136.876 101.922 133.617 100.207ZM132.845 99.8152C123.272 95.0718 106.012 91.6214 85.1031 90.5172C103.957 89.5148 119.843 86.6164 129.805 82.5776C136.054 85.1273 139.824 88.0983 140.242 91.2872V92.4858C139.895 95.1154 137.266 97.6069 132.845 99.8225V99.8152ZM130.733 82.1854C135.551 80.1151 138.846 77.7688 140.242 75.241V89.1298C138.846 86.6019 135.551 84.2556 130.733 82.1854ZM0.708543 75.1538C2.07603 77.718 5.39201 80.0933 10.2597 82.1781C5.38492 84.2702 2.07603 86.6455 0.708543 89.2024V75.1465V75.1538ZM11.195 82.5704C21.1571 86.6092 37.0426 89.5148 55.8898 90.51C34.9808 91.6214 17.7207 95.0718 8.14824 99.8079C3.39392 97.4181 0.708543 94.7231 0.708543 91.8756C0.708543 88.4615 4.54884 85.2726 11.195 82.5704ZM0.708543 94.5415C1.78553 96.5609 4.07412 98.4641 7.38302 100.2C4.07412 101.936 1.78553 103.847 0.708543 105.859V94.5342V94.5415ZM8.14824 100.6C17.3026 105.132 33.4928 108.488 53.1761 109.745C35.2713 110.886 20.2572 113.762 10.7982 117.685C4.39296 115.012 0.701457 111.881 0.701457 108.539C0.701457 105.685 3.38683 102.99 8.14116 100.607L8.14824 100.6ZM0.708543 111.205C2.0406 113.704 5.22196 116.021 9.89834 118.077C5.22196 120.125 2.0406 122.45 0.708543 124.949V111.212V111.205ZM70.5 145.288C32.019 145.288 0.708543 137.356 0.708543 127.615C0.708543 124.266 4.40005 121.135 10.8053 118.469C23.1835 123.605 45.0704 126.946 70.5 126.946C95.9296 126.946 117.816 123.598 130.195 118.469C136.6 121.142 140.291 124.273 140.291 127.615C140.291 137.363 108.981 145.288 70.5 145.288Z" fill="#C2C2C2"/>
</svg>
