<svg width="163" height="162" viewBox="0 0 163 162" fill="none" xmlns="http://www.w3.org/2000/svg">
<g clip-path="url(#clip0_66_470)">
<path d="M142.734 80.598C142.734 50.4732 155.028 32.3116 159.902 26.2898C161.921 24.4889 162.992 22.5835 162.992 20.5977C162.992 12.5017 145.062 5.65191 118.39 2.33151L117.717 1.92149C117.717 1.92149 117.644 2.04208 117.538 2.227C106.834 0.932605 94.759 0.209032 81.8893 0.192953V0H81.0783V0.200993C68.2086 0.217072 56.1336 0.940645 45.4292 2.23504C45.3237 2.05012 45.2589 1.94561 45.2507 1.92953L44.5777 2.33955C17.93 5.65995 0 12.5098 0 20.6058C0 22.5916 1.07856 24.497 3.0897 26.2979C7.96348 32.3116 20.2574 50.4813 20.2574 80.6061C20.2574 114.236 5.54687 132.953 2.45716 136.506C0.859602 138.122 0 139.835 0 141.595C0 149.426 16.7866 156.099 42.0475 159.524L42.1935 159.628C42.1935 159.628 42.2178 159.596 42.2502 159.556C53.8305 161.116 67.1787 162 81.5081 162C95.8375 162 109.186 161.116 120.766 159.556C120.79 159.588 120.815 159.628 120.823 159.628L120.969 159.524C146.23 156.099 163.016 149.426 163.016 141.595C163.016 139.826 162.157 138.114 160.543 136.49C157.437 132.912 142.751 114.196 142.751 80.598H142.734ZM45.0156 3.12744C45.8752 4.71127 47.9188 8.75523 50.2218 15.3317C38.4064 16.4251 28.5534 18.1295 21.7009 20.2359C18.1895 14.0856 15.1728 10.6848 14.297 9.7602C21.9928 6.95434 32.5757 4.65499 45.0156 3.1194V3.12744ZM24.0202 134.882C25.1474 132.671 26.3152 130.123 27.4667 127.244C28.1641 127.084 28.8778 126.931 29.6157 126.786C28.5128 127.365 27.9046 127.984 27.9046 128.659C27.9046 131.457 38.3496 133.459 52.4276 134.593C51.0652 139.023 49.6461 142.841 48.308 146.065C36.6953 144.883 27.0126 143.115 20.5818 141C21.7009 139.199 22.8687 137.173 24.0283 134.89L24.0202 134.882ZM19.7384 140.711C14.8403 138.998 12.0506 137.069 12.0506 135.051C12.0506 132.237 17.4597 129.608 26.4449 127.478C24.2554 132.848 21.9036 137.23 19.7384 140.711ZM28.7075 128.651C28.7075 127.614 31.4241 126.537 36.2898 125.58C41.9583 124.688 48.4053 123.948 55.3876 123.417C54.5361 127.172 53.6197 130.637 52.6628 133.797C37.8063 132.591 28.7156 130.557 28.7156 128.659L28.7075 128.651ZM27.9046 126.111C31.5377 116.656 34.8382 103.785 35.5599 87.3272C36.525 87.488 37.4819 87.6408 38.4226 87.7775C44.5777 88.6779 51.8194 89.3532 59.7018 89.7954C59.1828 102.321 57.642 113.119 55.6552 122.212C45.2913 123.048 35.8924 124.39 27.9046 126.111ZM34.7733 86.3866C26.0232 84.851 21.0684 82.9456 21.0684 81.1045C21.0684 79.2634 26.0476 77.35 34.8301 75.8144C34.8788 77.3741 34.895 78.966 34.895 80.59C34.895 82.5758 34.8463 84.4973 34.7733 86.3866ZM35.5843 86.5313C35.6573 84.6018 35.7059 82.624 35.7059 80.59C35.7059 78.9177 35.6735 77.2776 35.6329 75.6697C41.9583 74.6084 50.1407 73.7402 59.7829 73.2015C59.8478 75.6054 59.8964 78.0575 59.8964 80.598C59.8964 83.4843 59.8315 86.274 59.7261 88.9995C50.0759 88.4689 41.9015 87.5926 35.5843 86.5313ZM38.4145 74.4316C37.49 74.5682 36.5412 74.713 35.5924 74.8737C35.0491 58.9873 32.2837 46.2363 28.9021 36.3797C31.5701 36.9505 34.5057 37.4731 37.6522 37.9474C41.8367 38.7031 47.124 39.3141 53.0196 39.7804C54.1711 39.885 55.3389 39.9814 56.5229 40.0779C58.1367 49.1628 59.3612 59.936 59.7504 72.4216C51.8356 72.8638 44.5777 73.5392 38.4064 74.4396L38.4145 74.4316ZM28.5453 35.3827C28.4642 35.1657 28.3912 34.9405 28.3101 34.7235C28.5696 35.0129 28.9426 35.2943 29.4292 35.5596C29.1292 35.4953 28.8372 35.439 28.5453 35.3747V35.3827ZM41.7799 37.658C39.5741 37.3525 37.4332 37.0228 35.3572 36.6771C31.0754 35.7686 28.6994 34.7637 28.6994 33.7909C28.6994 31.8292 38.3901 29.7228 54.0982 28.5409C54.8929 31.7649 55.6633 35.2782 56.3607 39.1132C51.1869 38.7353 46.2888 38.2449 41.7799 37.666V37.658ZM27.9208 33.6381C26.0232 28.5811 23.9959 24.3683 22.0901 20.9515C28.9183 18.9255 38.8118 17.2532 50.4976 16.1598C51.6167 19.432 52.7844 23.283 53.9116 27.737C39.3471 28.8223 28.3182 30.8162 27.929 33.6301L27.9208 33.6381ZM27.6695 35.1978C25.9908 34.828 24.3689 34.4501 22.82 34.0481C15.9756 32.1025 11.9696 29.8193 11.9696 27.3913C11.9696 25.1482 15.3998 23.0177 21.336 21.1766C22.2604 22.8167 23.2174 24.6497 24.1662 26.6757C25.3096 29.1118 26.5017 31.9498 27.6613 35.1978H27.6695ZM1.70299 23.484L1.68677 23.5C1.11099 22.5514 0.802836 21.5866 0.802836 20.6058C0.802836 16.7306 5.45766 13.1128 13.486 10.0737L13.4698 10.0898C13.5103 10.13 16.9082 13.4745 20.9467 20.4852C14.7187 22.4951 11.1667 24.8507 11.1667 27.3993C11.1667 28.8223 12.2858 30.1891 14.3537 31.4754C9.71513 29.7871 6.12264 27.9219 3.81144 25.928C2.54637 24.3603 1.73542 23.5402 1.69488 23.5L1.70299 23.484ZM5.49821 28.1068C9.59348 30.7679 15.8297 33.1477 23.712 35.1174C25.0582 35.4872 26.5017 35.841 28.0344 36.1787C31.3268 45.7057 34.2543 58.5933 34.8058 75.0024C28.9507 76.0234 23.1282 77.4947 21.0602 79.5127C20.8007 52.9736 11.0613 35.7767 5.49821 28.1068ZM21.044 82.6642C23.0957 84.6822 28.9021 86.1615 34.749 87.1825C34.0435 103.551 30.7754 116.503 26.9072 126.328C17.3704 128.458 9.90975 131.152 5.29547 134.231C10.3639 127.325 20.5494 110.072 21.044 82.6723V82.6642ZM41.8691 158.655C17.3786 155.287 0.810945 148.903 0.810945 141.587C0.810945 140.245 1.3705 138.926 2.44095 137.656L2.47338 137.688C2.47338 137.688 2.81398 137.334 3.34109 136.707C5.8307 134.359 10.0638 132.189 15.6837 130.267C12.8129 131.747 11.2397 133.355 11.2397 135.043C11.2397 137.35 14.151 139.497 19.3167 141.378C15.1809 147.866 11.8236 150.953 11.7344 151.034L12.2777 151.629C12.3264 151.589 15.8621 148.373 20.1439 141.66C26.599 143.87 36.2249 145.671 47.9431 146.869C45.1372 153.454 42.7206 157.361 41.861 158.655H41.8691ZM81.0945 161.188C67.2193 161.172 54.1549 160.296 42.7611 158.776C43.8073 157.168 46.1671 153.237 48.8432 146.95C58.4367 147.89 69.3845 148.429 81.1026 148.445V161.188H81.0945ZM81.0945 147.641C69.6602 147.625 58.7854 147.078 49.1757 146.138C49.9299 144.337 50.6922 142.367 51.4626 140.196C52.0627 138.508 52.6709 136.659 53.2872 134.649C61.7859 135.3 71.5416 135.646 81.0864 135.654V147.649L81.0945 147.641ZM81.0945 134.842C70.682 134.834 61.3399 134.456 53.5305 133.853C54.4631 130.726 55.3957 127.22 56.2634 123.337C63.5213 122.806 71.347 122.493 79.4726 122.445C80.016 122.445 80.5512 122.445 81.1026 122.445V134.85L81.0945 134.842ZM81.0945 121.19C72.4904 121.199 64.2431 121.528 56.5229 122.131C58.4367 113.231 59.9937 102.45 60.5208 89.8276C67.0327 90.1733 73.9663 90.3582 81.0945 90.3663V121.19ZM81.0945 89.5623C73.7068 89.5623 66.83 89.3613 60.5533 89.0317C60.6587 86.2982 60.7155 83.4843 60.7155 80.5819C60.7155 78.0334 60.6668 75.5652 60.6019 73.1452C66.8706 72.8156 73.7311 72.6226 81.0945 72.6146V89.5542V89.5623ZM81.0945 71.8187C73.9825 71.8187 67.0733 72.0116 60.5776 72.3573C60.1965 59.936 58.9719 49.203 57.3744 40.1262C64.8513 40.6889 72.8067 40.9944 81.0945 41.0025V71.8267V71.8187ZM81.0945 39.9814C80.5025 39.9814 79.9187 39.9814 79.3348 39.9814C71.6146 39.9332 64.162 39.6518 57.2041 39.1614C56.4986 35.2863 55.7282 31.7327 54.9253 28.4686C62.4428 27.9219 71.2902 27.5923 81.0864 27.5842V39.9895L81.0945 39.9814ZM81.0945 26.7722C72.0768 26.7802 62.8888 27.0858 54.7307 27.6727C53.6116 23.2187 52.4519 19.3596 51.3328 16.0794C60.3992 15.2594 70.5117 14.7931 81.0945 14.785V26.7802V26.7722ZM81.0945 13.973C70.2765 13.981 60.1073 14.4393 51.049 15.2513C48.827 8.86779 46.8321 4.81578 45.8752 3.01489C56.5067 1.73658 68.46 1.013 81.0864 0.996923V13.973H81.0945ZM157.705 134.215C153.228 131.24 146.1 128.619 136.993 126.521C133.263 117.026 129.824 103.921 129.111 87.0217C134.657 86.0087 140.01 84.5777 141.956 82.6562C142.451 110.055 152.636 127.309 157.705 134.215ZM138.972 26.2657C137.78 28.7982 136.539 31.7649 135.331 35.1737C134.747 35.3023 134.155 35.4229 133.555 35.5516C134.544 34.9968 135.095 34.4099 135.095 33.7748C135.095 30.8805 123.904 28.8304 109.08 27.7289C110.199 23.2749 111.367 19.4159 112.494 16.1518C124.586 17.2773 134.755 19.03 141.599 21.1525C140.74 22.7041 139.856 24.4005 138.972 26.2737V26.2657ZM142.426 21.4097C147.884 23.1945 151.014 25.2366 151.014 27.3752C151.014 29.7951 147.008 32.0865 140.164 34.0321C138.923 34.3536 137.642 34.6592 136.32 34.9566C138.29 29.5137 140.423 25.0115 142.434 21.4097H142.426ZM134.284 33.7748C134.284 34.7476 131.908 35.7445 127.618 36.661C125.551 37.0148 123.418 37.3364 121.212 37.6419C116.695 38.2207 111.797 38.7112 106.623 39.089C107.32 35.2541 108.091 31.7407 108.886 28.5168C124.594 29.6987 134.284 31.8131 134.284 33.7668V33.7748ZM109.964 39.7563C115.86 39.2981 121.139 38.687 125.323 37.9313C128.835 37.4007 132.071 36.8138 134.982 36.1706C131.698 45.7459 128.794 58.6416 128.251 75.0104C127.01 74.7934 125.778 74.6004 124.569 74.4235C118.398 73.5231 111.14 72.8397 103.225 72.4056C103.606 59.9199 104.839 49.1467 106.453 40.0618C107.637 39.9734 108.805 39.8689 109.964 39.7644V39.7563ZM129.029 75.943C137.277 77.4545 141.924 79.2956 141.924 81.0884C141.924 82.8813 137.293 84.7143 129.078 86.2258C129.013 84.3847 128.973 82.5034 128.973 80.5739C128.973 78.9981 128.997 77.4625 129.038 75.943H129.029ZM128.219 75.7983C128.178 77.358 128.154 78.9499 128.154 80.5659C128.154 82.5436 128.194 84.4732 128.267 86.3544C121.836 87.488 113.354 88.4206 103.258 88.9754C103.152 86.258 103.095 83.4602 103.095 80.5739C103.095 78.0414 103.144 75.5893 103.209 73.1774C113.305 73.7321 121.788 74.6647 128.227 75.7983H128.219ZM124.561 87.7533C125.786 87.5765 127.035 87.3755 128.292 87.1584C129.005 103.809 132.354 116.801 136.036 126.304C127.837 124.471 118.098 123.064 107.312 122.187C105.382 113.279 103.809 102.458 103.282 89.7713C111.172 89.3291 118.414 88.6538 124.561 87.7533ZM126.126 125.443C131.357 126.432 134.276 127.55 134.276 128.627C134.276 130.533 125.161 132.567 110.28 133.773C109.356 130.677 108.431 127.212 107.572 123.377C114.327 123.892 120.588 124.591 126.126 125.443ZM135.087 128.627C135.087 127.944 134.447 127.301 133.287 126.714C134.39 126.939 135.452 127.172 136.466 127.405C137.593 130.211 138.737 132.695 139.839 134.858C140.959 137.053 142.078 139.014 143.156 140.767C136.709 142.986 126.718 144.835 114.66 146.049C113.881 144.184 113.078 142.134 112.275 139.867C111.7 138.251 111.116 136.474 110.524 134.56C124.626 133.427 135.087 131.425 135.087 128.627ZM140.561 134.496C139.539 132.486 138.477 130.203 137.431 127.638C145.97 129.729 151.071 132.293 151.071 135.027C151.071 136.972 148.492 138.83 143.935 140.494C142.84 138.725 141.696 136.739 140.561 134.496ZM151.582 37.7384C147.251 46.2444 142.118 60.354 141.932 79.5046C139.969 77.5831 134.609 76.1601 129.054 75.1471C129.589 58.8426 132.46 45.8826 135.947 35.9455C137.115 35.6722 138.218 35.3908 139.272 35.1013C147.122 33.1477 153.342 30.776 157.437 28.1229C155.734 30.4624 153.65 33.6622 151.582 37.7303V37.7384ZM162.181 20.5897C162.181 21.5705 161.881 22.5353 161.297 23.484L161.281 23.4679C161.281 23.4679 160.421 24.3281 159.116 25.9441C156.796 27.9219 153.228 29.7791 148.622 31.4433C150.69 30.165 151.809 28.7982 151.809 27.3671C151.809 24.9311 148.541 22.6639 142.799 20.7103C146.311 14.5519 149.319 11.1752 150.147 10.2989C157.769 13.2896 162.173 16.811 162.173 20.5816L162.181 20.5897ZM117.984 3.12744C130.773 4.71127 141.607 7.09102 149.352 10.0094C148.241 11.2073 145.313 14.6162 141.988 20.461C135.112 18.2501 124.983 16.4734 112.77 15.3398C115.073 8.76328 117.117 4.71931 117.976 3.13548L117.984 3.12744ZM81.9055 1.00496C94.5319 1.02104 106.485 1.74462 117.117 3.02293C116.16 4.82382 114.173 8.87583 111.943 15.2594C102.893 14.4473 92.7235 13.9971 81.8974 13.981V1.00496H81.9055ZM81.9055 14.785C92.4883 14.7931 102.601 15.2594 111.667 16.0794C110.548 19.3596 109.38 23.2267 108.269 27.6727C100.119 27.0858 90.9232 26.7802 81.9136 26.7722V14.777L81.9055 14.785ZM81.9055 27.5842C91.7017 27.5923 100.549 27.9299 108.067 28.4686C107.264 31.7327 106.493 35.2863 105.788 39.1614C98.8299 39.6518 91.3854 39.9332 83.6652 39.9814C83.0813 39.9814 82.4975 39.9814 81.9055 39.9814V27.5762V27.5842ZM81.9055 41.0025C90.1933 40.9944 98.1487 40.6889 105.626 40.1262C104.028 49.203 102.804 59.936 102.422 72.3573C95.9267 72.0116 89.0175 71.8267 81.9055 71.8187V40.9944V41.0025ZM81.9055 72.6307C89.2689 72.6307 96.1376 72.8236 102.398 73.1613C102.333 75.5812 102.285 78.0494 102.285 80.598C102.285 83.5003 102.349 86.3062 102.455 89.0477C96.1781 89.3774 89.2932 89.5703 81.9055 89.5784V72.6387V72.6307ZM81.9055 90.3743C89.0337 90.3743 95.9673 90.1813 102.479 89.8356C102.998 102.297 104.523 113.054 106.493 122.139C98.765 121.536 90.5096 121.207 81.9055 121.199V90.3743ZM81.9055 122.445C82.538 122.445 83.1705 122.445 83.795 122.445C91.8314 122.493 99.5679 122.806 106.761 123.329C107.621 127.14 108.545 130.645 109.51 133.845C101.693 134.456 92.3342 134.826 81.8974 134.842V122.437L81.9055 122.445ZM81.9055 135.654C91.4746 135.646 101.238 135.3 109.745 134.649C111.108 139.087 112.519 142.906 113.865 146.154C104.247 147.094 93.3479 147.641 81.9055 147.649V135.654ZM81.9055 161.196V148.453C93.6399 148.445 104.596 147.906 114.205 146.974C116.865 153.261 119.209 157.184 120.239 158.792C108.845 160.312 95.7807 161.188 81.9055 161.204V161.196ZM121.123 158.664C120.263 157.369 117.822 153.454 115.008 146.893C127.172 145.663 137.107 143.782 143.586 141.467C147.3 147.336 150.471 150.576 151.339 151.404C144.113 154.427 133.66 156.943 121.123 158.664ZM162.181 141.595C162.181 145.036 158.507 148.268 152.068 151.082L152.117 151.026C152.068 150.986 148.589 147.818 144.356 141.161C149.173 139.336 151.89 137.254 151.89 135.035C151.89 133.403 150.43 131.851 147.754 130.42C153.147 132.301 157.218 134.424 159.643 136.699C160.178 137.334 160.494 137.664 160.519 137.688L160.551 137.656C161.621 138.926 162.181 140.245 162.181 141.587V141.595Z" fill="#C2C2C2"/>
</g>
<defs>
<clipPath id="clip0_66_470">
<rect width="163" height="162" fill="white"/>
</clipPath>
</defs>
</svg>
