<svg width="201" height="202" viewBox="0 0 201 202" fill="none" xmlns="http://www.w3.org/2000/svg">
<g clip-path="url(#clip0_66_528)">
<path d="M115.94 2.38C110.84 0.83 105.54 0 100.11 0C94.35 0 88.75 0.92 83.37 2.66C36.08 10.81 0 52.07 0 101.6C0 156.96 45.08 202 100.5 202C100.73 202 100.96 202 101.2 202C101.3 202 101.4 202 101.5 202C101.75 202 102 201.99 102.25 201.98C156.86 201.04 201 156.38 201 101.6C201 51.48 164.05 9.82 115.94 2.38ZM131.96 32.69C135.3 40.84 138.06 50.33 140.07 60.77L139.17 61.67C127.41 59.55 114.52 58.37 101 58.34V29.05C112.63 29.09 122.9 30.44 131.95 32.68L131.96 32.69ZM101.01 28.06V2.21C101.08 2.21 101.14 2.21 101.21 2.21C101.56 2.21 101.9 2.21 102.24 2.22C113.65 2.68 123.98 13.81 131.48 31.55C122.53 29.39 112.41 28.1 101 28.06H101.01ZM130.45 70.39C125.02 65.19 118.24 61.38 110.69 59.56C120.38 59.98 129.66 61 138.33 62.52L130.45 70.4V70.39ZM139.54 62.73C139.85 62.79 140.16 62.85 140.48 62.9C142.58 74.54 143.76 87.31 143.81 100.7H143.8C143.56 89.16 138.79 78.71 131.18 71.08L139.54 62.72V62.73ZM130.47 71.79C137.9 79.24 142.56 89.44 142.79 100.71H101.52L130.46 71.79H130.47ZM142.82 101.7C142.79 113.18 138.16 123.6 130.67 131.2L101.14 101.7H142.82ZM138.68 140.62C129.91 142.17 120.52 143.21 110.7 143.63C118.34 141.78 125.2 137.91 130.66 132.61L138.68 140.62ZM131.37 131.91C139.03 124.13 143.78 113.48 143.81 101.74C143.81 115.41 142.61 128.43 140.47 140.29C140.27 140.33 140.07 140.37 139.87 140.4L131.37 131.9V131.91ZM144.81 101.7H172.23C172.13 112.45 170.79 122.79 168.39 132.46C160.51 135.59 151.44 138.18 141.49 140.1C143.62 128.27 144.8 115.3 144.8 101.7H144.81ZM144.81 100.7C144.76 87.39 143.59 74.69 141.5 63.09C151.71 65.06 161 67.74 169.02 70.98C171.12 80.28 172.25 90.17 172.25 100.41C172.25 100.51 172.25 100.61 172.25 100.71H144.82L144.81 100.7ZM161.01 44.86C170.05 50.55 176.88 57.06 181.92 63.12C190.52 73.45 195.24 83.86 197.61 90.42C192.78 82.65 183.03 75.73 169.89 70.32C167.8 61.21 164.79 52.65 161.01 44.86ZM168.76 69.87C160.72 66.66 151.46 64.01 141.31 62.06C141.25 61.75 141.19 61.43 141.13 61.12L158.77 43.5C158.98 43.63 159.2 43.75 159.41 43.88C163.39 51.79 166.56 60.53 168.75 69.87H168.76ZM140.91 59.94C138.94 49.96 136.29 40.86 133.09 32.95C142.7 35.44 150.9 38.95 157.89 42.97L140.91 59.94ZM129.75 71.09L101.02 99.79V59.34C112.15 59.47 122.26 63.92 129.75 71.09ZM129.95 131.9C122.44 139.18 112.25 143.71 101.02 143.84V103L129.95 131.91V131.9ZM139.52 141.46L140.14 142.08C138.18 152.35 135.5 161.71 132.26 169.79C121.28 172.29 110.49 173.14 101.02 173.15V144.84C114.66 144.81 127.67 143.61 139.52 141.45V141.46ZM131.79 170.95C126.07 184.73 118.67 194.63 110.38 198.8C107.32 199.4 104.19 199.74 101.02 199.79V174.15C112.58 174.13 122.78 172.95 131.79 170.95ZM132.91 170.69C141.99 168.58 149.82 165.64 156.58 162.21C146 180.52 130.84 193.59 113.51 198.09C121.01 193.08 127.68 183.48 132.92 170.69H132.91ZM133.38 169.53C136.49 161.7 139.07 152.73 140.99 142.92L157.92 159.83C157.77 160.1 157.62 160.37 157.47 160.65C149.67 164.75 141.49 167.6 133.39 169.53H133.38ZM141.21 141.73C141.25 141.53 141.29 141.33 141.32 141.13C151.19 139.24 160.23 136.68 168.12 133.59C165.77 142.72 162.48 151.23 158.4 158.92L141.21 141.74V141.73ZM169.27 133.12C183.37 127.42 193.65 120 198.29 111.64C196.38 118.01 192.15 128.82 183.43 139.55C176.34 148.27 168.05 154.82 159.22 159.71L159.15 159.64C163.43 151.62 166.87 142.7 169.28 133.12H169.27ZM169.55 132C171.86 122.45 173.15 112.27 173.25 101.69H200.03C199.96 113.58 188.28 124.33 169.55 132ZM173.26 100.69C173.26 100.59 173.26 100.49 173.26 100.39C173.26 90.32 172.17 80.6 170.15 71.42C188.11 78.9 199.44 89.24 200 100.68H173.25L173.26 100.69ZM170.91 31.39C187.09 47.58 197.72 69.29 199.69 93.42C197.83 87.45 193.05 74.92 182.73 62.51C177.37 56.06 170.02 49.11 160.17 43.15C160.05 42.92 159.94 42.69 159.82 42.46L170.9 31.39H170.91ZM170.2 30.69L159.34 41.54C150.15 24.16 137.01 10.96 121.74 4.47C140.37 8.53 157.06 17.81 170.2 30.7V30.69ZM115.73 3.36C133.23 8.71 148.35 22.84 158.54 42.22C151.27 38.01 142.68 34.37 132.6 31.82C126.26 16.64 117.89 6.07 108.51 2.52C110.94 2.71 113.35 2.99 115.74 3.36H115.73ZM83.58 3.64C87.29 3 91.07 2.57 94.91 2.36C85.51 5.7 77.1 16.07 70.71 31.08C59.31 33.55 49.79 37.36 41.87 41.84C51.88 22.98 66.58 9.15 83.58 3.64ZM30.25 70.69C17.48 76.07 8.02 82.9 3.32 90.55C5.47 83.87 9.71 73.71 17.7 63.64C24.13 55.53 31.55 49.23 39.45 44.38C35.51 52.4 32.38 61.25 30.25 70.69ZM41.03 43.44C41.11 43.4 41.18 43.35 41.26 43.31L59.98 62.01C49.36 64.03 39.7 66.82 31.39 70.22C33.63 60.57 36.9 51.57 41.04 43.44H41.03ZM31.13 71.33C39.68 67.79 49.72 64.9 60.81 62.85L61.44 63.48C59.88 72.25 58.84 81.64 58.42 91.44C57.7 94.42 57.29 97.52 57.23 100.7H27.99C27.99 100.6 27.99 100.5 27.99 100.4C27.99 90.29 29.09 80.53 31.14 71.33H31.13ZM62.29 64.32L69.46 71.48C65.12 75.94 61.74 81.33 59.64 87.32C60.13 79.31 61.03 71.6 62.29 64.32ZM57.21 101.7C57.21 105.16 57.64 108.52 58.42 111.75C58.84 121.43 59.86 130.7 61.39 139.38L60.49 140.28C49.8 138.28 40.09 135.5 31.76 132.11C29.42 122.54 28.11 112.31 28.01 101.7H57.22H57.21ZM59.64 115.87C61.71 121.77 65.02 127.08 69.27 131.5L62.23 138.53C61 131.35 60.12 123.76 59.64 115.87ZM40.15 157.8C31.1 152.27 24.25 145.96 19.2 140.08C9.61 128.92 4.81 117.67 2.72 111.58C7.24 119.79 17.21 127.1 30.89 132.77C33.12 141.75 36.26 150.17 40.15 157.81V157.8ZM32.03 133.23C40.11 136.47 49.43 139.15 59.65 141.12L41.9 158.85C41.9 158.85 41.81 158.8 41.76 158.77C37.67 151.02 34.37 142.44 32.03 133.23ZM42.8 159.36L60.84 141.34C61.15 141.4 61.46 141.46 61.78 141.51C63.74 151.96 66.45 161.49 69.74 169.74C59.21 167.25 50.3 163.59 42.81 159.35L42.8 159.36ZM70.19 170.88C75.76 184.42 82.95 194.35 91.02 199.02C71.34 195.6 54.11 181.2 42.66 160.43C50.32 164.72 59.42 168.41 70.19 170.88ZM62.44 139.74L69.96 132.23C75.49 137.73 82.5 141.75 90.33 143.64C80.61 143.22 71.31 142.2 62.61 140.67C62.55 140.36 62.5 140.05 62.44 139.74ZM59.41 111.61C59.27 108.35 59.2 105.05 59.2 101.7H99.1L69.97 130.8C64.91 125.52 61.2 118.94 59.41 111.61ZM59.2 100.7C59.21 97.63 59.28 94.58 59.41 91.58C61.22 84.16 65 77.5 70.16 72.19L98.7 100.7H59.2ZM70.16 70.77L62.5 63.11C62.54 62.91 62.57 62.71 62.61 62.52C71.3 60.99 80.61 59.97 90.33 59.55C82.59 61.42 75.66 65.36 70.17 70.77H70.16ZM61.77 61.68C61.57 61.72 61.37 61.75 61.17 61.79L42.15 42.79C51.2 37.66 60.8 34.32 70.22 32.22C66.7 40.75 63.82 50.71 61.77 61.67V61.68ZM77.69 4.83C62.77 11.44 49.93 24.47 40.9 41.54L30.43 31.08C43.25 18.36 59.52 9.1 77.69 4.82V4.83ZM29.73 31.8L40.41 42.47C40.36 42.57 40.31 42.66 40.26 42.76C29.81 48.95 22.25 56.28 16.88 63.06C7.2 75.29 2.96 87.64 1.29 93.9C3.15 69.78 13.66 48.04 29.72 31.79L29.73 31.8ZM1.31 98.27H1.33C1.33 98.27 1.39 97.88 1.53 97.23C3.93 87.36 14.37 78.48 30.01 71.8C28.04 80.87 26.98 90.47 26.98 100.4C26.98 100.5 26.98 100.6 26.98 100.7H1.03C1.07 99.88 1.16 99.07 1.31 98.27ZM27 101.7C27.1 112.14 28.36 122.2 30.62 131.64C12.39 124 1.07 113.4 1 101.7H26.99H27ZM1.44 110.96C3.38 116.87 8.22 128.84 18.39 140.69C23.77 146.95 31.15 153.71 41.02 159.5C41.04 159.55 41.07 159.59 41.09 159.64L29.52 171.2C13.94 155.35 3.63 134.32 1.43 110.97L1.44 110.96ZM30.23 171.91L41.59 160.56C53.77 182.83 72.52 197.95 93.86 200.44C94.21 200.58 94.56 200.72 94.91 200.84C69.73 199.44 47.01 188.64 30.23 171.91ZM100 200.93C99.58 200.9 99.15 200.85 98.73 200.78C99.15 200.79 99.57 200.8 100 200.8V200.93ZM100 199.8C97.99 199.8 96 199.67 94.04 199.45C85.22 195.75 77.33 185.59 71.3 171.13C79.81 172.99 89.34 174.1 100 174.14V199.8ZM100 173.14C89.13 173.09 79.45 171.94 70.84 170C67.51 161.77 64.78 152.2 62.8 141.69C74.3 143.7 86.86 144.82 100.01 144.85V173.15L100 173.14ZM100 143.83C88.57 143.7 78.21 139.02 70.66 131.51L100 102.2V143.83ZM100 100.57L70.86 71.46C78.39 64.07 88.66 59.46 100 59.33V100.57ZM100 58.32C86.85 58.35 74.3 59.47 62.79 61.48C64.87 50.44 67.78 40.46 71.33 31.96C81.42 29.81 91.26 29.06 100 29.03V58.32ZM100 28.04C89.54 28.07 80.18 29.09 71.82 30.82C79.13 13.89 89.04 3.15 100 2.25V28.05V28.04ZM93.16 1.45C95.45 1.15 97.76 0.99 100.1 0.99C102.15 0.99 104.19 1.12 106.2 1.35C104.89 1.28 103.57 1.23 102.25 1.21C102 1.21 101.75 1.19 101.5 1.19C101.4 1.19 101.3 1.19 101.2 1.19C100.97 1.19 100.74 1.19 100.5 1.19C98.03 1.19 95.58 1.28 93.16 1.46V1.45ZM102.23 200.97C101.89 200.97 101.54 200.98 101.2 200.98C101.13 200.98 101.07 200.98 101 200.98V200.79C102.56 200.76 104.12 200.68 105.66 200.52C104.53 200.78 103.39 200.93 102.24 200.98L102.23 200.97ZM108.5 200.67C109.2 200.41 109.88 200.11 110.57 199.77C129.89 195.95 146.79 181.72 158.16 161.37C158.44 161.22 158.71 161.07 158.99 160.92L170.37 172.29C154.17 188.27 132.53 198.75 108.51 200.67H108.5ZM171.07 171.59L159.9 160.43C170.84 154.3 178.68 146.93 184.2 140.14C193.59 128.58 197.83 116.89 199.58 110.66C197.43 134.33 186.94 155.62 171.07 171.59Z" fill="#C2C2C2"/>
</g>
<defs>
<clipPath id="clip0_66_528">
<rect width="201" height="202" fill="white"/>
</clipPath>
</defs>
</svg>
