<svg width="100" height="350" viewBox="0 0 100 350" fill="none" xmlns="http://www.w3.org/2000/svg">
<g clip-path="url(#clip0_32_1821)">
<rect width="500" height="0.5" transform="translate(-162 153) rotate(-30)" fill="#C2C2C2"/>
<rect width="500" height="0.5" transform="translate(-159 157) rotate(-30)" fill="#C2C2C2"/>
<rect width="500" height="0.5" transform="translate(-155 160) rotate(-30)" fill="#C2C2C2"/>
<rect width="500" height="0.5" transform="translate(-151 164) rotate(-30)" fill="#C2C2C2"/>
<rect width="500" height="0.5" transform="translate(-178 139) rotate(-30)" fill="#C2C2C2"/>
<rect width="500" height="0.5" transform="translate(-175 143) rotate(-30)" fill="#C2C2C2"/>
<rect width="500" height="0.5" transform="translate(-171 146) rotate(-30)" fill="#C2C2C2"/>
<rect width="500" height="0.5" transform="translate(-167 150) rotate(-30)" fill="#C2C2C2"/>
<rect width="500" height="0.5" transform="translate(-190 122) rotate(-30)" fill="#C2C2C2"/>
<rect width="500" height="0.5" transform="translate(-186 126) rotate(-30)" fill="#C2C2C2"/>
<rect width="500" height="0.5" transform="translate(-182 129) rotate(-30)" fill="#C2C2C2"/>
<rect width="500" height="0.5" transform="translate(-178 133) rotate(-30)" fill="#C2C2C2"/>
<rect width="500" height="0.5" transform="translate(-186 126) rotate(-30)" fill="#C2C2C2"/>
<rect width="500" height="0.5" transform="translate(-192 111) rotate(-30)" fill="#C2C2C2"/>
<rect width="500" height="0.5" transform="translate(-189 115) rotate(-30)" fill="#C2C2C2"/>
<rect width="500" height="0.5" transform="translate(-182 129) rotate(-30)" fill="#C2C2C2"/>
<rect width="500" height="0.5" transform="translate(-178 133) rotate(-30)" fill="#C2C2C2"/>
<rect width="500" height="0.5" transform="translate(-148 167) rotate(-30)" fill="#C2C2C2"/>
<rect width="500" height="0.5" transform="translate(-145 171) rotate(-30)" fill="#C2C2C2"/>
<rect width="500" height="0.5" transform="translate(-142 174) rotate(-30)" fill="#C2C2C2"/>
<rect width="500" height="0.5" transform="translate(-135 176) rotate(-30)" fill="#C2C2C2"/>
<rect width="500" height="0.5" transform="translate(-132 180) rotate(-30)" fill="#C2C2C2"/>
<rect width="500" height="0.5" transform="translate(-129 183) rotate(-30)" fill="#C2C2C2"/>
<rect width="500" height="0.5" transform="translate(-125 187) rotate(-30)" fill="#C2C2C2"/>
<rect width="500" height="0.5" transform="translate(-122 190) rotate(-30)" fill="#C2C2C2"/>
<rect width="500" height="0.5" transform="translate(-119 194) rotate(-30)" fill="#C2C2C2"/>
<rect width="500" height="0.5" transform="translate(-116 197) rotate(-30)" fill="#C2C2C2"/>
<rect width="500" height="0.5" transform="translate(-119 206) rotate(-30)" fill="#C2C2C2"/>
<rect width="500" height="0.5" transform="translate(-116 210) rotate(-30)" fill="#C2C2C2"/>
<rect width="500" height="0.5" transform="translate(-113 213) rotate(-30)" fill="#C2C2C2"/>
<rect width="500" height="0.5" transform="translate(-109 217) rotate(-30)" fill="#C2C2C2"/>
<rect width="500" height="0.5" transform="translate(-106 220) rotate(-30)" fill="#C2C2C2"/>
<rect width="500" height="0.5" transform="translate(-103 224) rotate(-30)" fill="#C2C2C2"/>
<rect width="500" height="0.5" transform="translate(-100 227) rotate(-30)" fill="#C2C2C2"/>
<rect width="500" height="0.5" transform="translate(-93 229) rotate(-30)" fill="#C2C2C2"/>
<rect width="500" height="0.5" transform="translate(-90 233) rotate(-30)" fill="#C2C2C2"/>
<rect width="500" height="0.5" transform="translate(-87 236) rotate(-30)" fill="#C2C2C2"/>
<rect width="500" height="0.5" transform="translate(-83 240) rotate(-30)" fill="#C2C2C2"/>
<rect width="500" height="0.5" transform="translate(-80 243) rotate(-30)" fill="#C2C2C2"/>
<rect width="500" height="0.5" transform="translate(-77 247) rotate(-30)" fill="#C2C2C2"/>
<rect width="500" height="0.5" transform="translate(-74 250) rotate(-30)" fill="#C2C2C2"/>
<rect width="500" height="0.5" transform="translate(-109 278) rotate(-30)" fill="#C2C2C2"/>
<rect width="500" height="0.5" transform="translate(-106 282) rotate(-30)" fill="#C2C2C2"/>
<rect width="500" height="0.5" transform="translate(-103 285) rotate(-30)" fill="#C2C2C2"/>
<rect width="500" height="0.5" transform="translate(-99 289) rotate(-30)" fill="#C2C2C2"/>
<rect width="500" height="0.5" transform="translate(-96 292) rotate(-30)" fill="#C2C2C2"/>
<rect width="500" height="0.5" transform="translate(-93 296) rotate(-30)" fill="#C2C2C2"/>
<rect width="500" height="0.5" transform="translate(-90 299) rotate(-30)" fill="#C2C2C2"/>
<rect width="500" height="0.5" transform="translate(-83 301) rotate(-30)" fill="#C2C2C2"/>
<rect width="500" height="0.5" transform="translate(-80 305) rotate(-30)" fill="#C2C2C2"/>
<rect width="500" height="0.5" transform="translate(-77 308) rotate(-30)" fill="#C2C2C2"/>
<rect width="500" height="0.5" transform="translate(-73 312) rotate(-30)" fill="#C2C2C2"/>
<rect width="500" height="0.5" transform="translate(-70 315) rotate(-30)" fill="#C2C2C2"/>
<rect width="500" height="0.5" transform="translate(-67 319) rotate(-30)" fill="#C2C2C2"/>
<rect width="500" height="0.5" transform="translate(-64 322) rotate(-30)" fill="#C2C2C2"/>
<rect width="500" height="0.5" transform="translate(-67 331) rotate(-30)" fill="#C2C2C2"/>
<rect width="500" height="0.5" transform="translate(-64 335) rotate(-30)" fill="#C2C2C2"/>
<rect width="500" height="0.5" transform="translate(-61 338) rotate(-30)" fill="#C2C2C2"/>
<rect width="500" height="0.5" transform="translate(-57 342) rotate(-30)" fill="#C2C2C2"/>
<rect width="500" height="0.5" transform="translate(-54 345) rotate(-30)" fill="#C2C2C2"/>
<rect width="500" height="0.5" transform="translate(-51 349) rotate(-30)" fill="#C2C2C2"/>
<rect width="500" height="0.5" transform="translate(-48 352) rotate(-30)" fill="#C2C2C2"/>
<rect width="500" height="0.5" transform="translate(-41 354) rotate(-30)" fill="#C2C2C2"/>
<rect width="500" height="0.5" transform="translate(-38 358) rotate(-30)" fill="#C2C2C2"/>
<rect width="500" height="0.5" transform="translate(-35 361) rotate(-30)" fill="#C2C2C2"/>
<rect width="500" height="0.5" transform="translate(-31 365) rotate(-30)" fill="#C2C2C2"/>
<rect width="500" height="0.5" transform="translate(-28 368) rotate(-30)" fill="#C2C2C2"/>
<rect width="500" height="0.5" transform="translate(-25 372) rotate(-30)" fill="#C2C2C2"/>
<rect width="500" height="0.5" transform="translate(-22 375) rotate(-30)" fill="#C2C2C2"/>
<rect width="500" height="0.5" transform="translate(-44 393) rotate(-30)" fill="#C2C2C2"/>
<rect width="500" height="0.5" transform="translate(-41 397) rotate(-30)" fill="#C2C2C2"/>
<rect width="500" height="0.5" transform="translate(-38 400) rotate(-30)" fill="#C2C2C2"/>
<rect width="500" height="0.5" transform="translate(-34 404) rotate(-30)" fill="#C2C2C2"/>
<rect width="500" height="0.5" transform="translate(-31 407) rotate(-30)" fill="#C2C2C2"/>
<rect width="500" height="0.5" transform="translate(-28 411) rotate(-30)" fill="#C2C2C2"/>
<rect width="500" height="0.5" transform="translate(-25 414) rotate(-30)" fill="#C2C2C2"/>
<rect width="500" height="0.5" transform="translate(-18 416) rotate(-30)" fill="#C2C2C2"/>
<rect width="500" height="0.5" transform="translate(-15 420) rotate(-30)" fill="#C2C2C2"/>
<rect width="500" height="0.5" transform="translate(-12 423) rotate(-30)" fill="#C2C2C2"/>
<rect width="500" height="0.5" transform="translate(-8 427) rotate(-30)" fill="#C2C2C2"/>
<rect width="500" height="0.5" transform="translate(-5 430) rotate(-30)" fill="#C2C2C2"/>
<rect width="500" height="0.5" transform="translate(-2 434) rotate(-30)" fill="#C2C2C2"/>
<rect width="500" height="0.5" transform="translate(-4 441) rotate(-30)" fill="#C2C2C2"/>
<rect width="500" height="0.5" transform="translate(-2 446) rotate(-30)" fill="#C2C2C2"/>
<rect width="500" height="0.5" transform="translate(-38 473) rotate(-30)" fill="#C2C2C2"/>
<rect width="500" height="0.5" transform="translate(-35 476) rotate(-30)" fill="#C2C2C2"/>
<rect width="500" height="0.5" transform="translate(-31 480) rotate(-30)" fill="#C2C2C2"/>
<rect width="500" height="0.5" transform="translate(-28 483) rotate(-30)" fill="#C2C2C2"/>
<rect width="500" height="0.5" transform="translate(-25 487) rotate(-30)" fill="#C2C2C2"/>
<rect width="500" height="0.5" transform="translate(-22 490) rotate(-30)" fill="#C2C2C2"/>
<rect width="500" height="0.5" transform="translate(-15 492) rotate(-30)" fill="#C2C2C2"/>
<rect width="500" height="0.5" transform="translate(-12 496) rotate(-30)" fill="#C2C2C2"/>
<rect width="500" height="0.5" transform="translate(-9 500) rotate(-30)" fill="#C2C2C2"/>
<rect width="500" height="0.5" transform="translate(-5 503) rotate(-30)" fill="#C2C2C2"/>
<rect width="500" height="0.5" transform="translate(-2 506) rotate(-30)" fill="#C2C2C2"/>
<rect width="500" height="0.5" transform="translate(1 510) rotate(-30)" fill="#C2C2C2"/>
<rect width="500" height="0.5" transform="translate(4 513) rotate(-30)" fill="#C2C2C2"/>
<rect width="500" height="0.5" transform="translate(6 517) rotate(-30)" fill="#C2C2C2"/>
<rect width="500" height="0.5" transform="translate(9 520) rotate(-30)" fill="#C2C2C2"/>
<rect width="500" height="0.5" transform="translate(15 522) rotate(-30)" fill="#C2C2C2"/>
<rect width="500" height="0.5" transform="translate(22 524) rotate(-30)" fill="#C2C2C2"/>
<rect width="500" height="0.5" transform="translate(25 528) rotate(-30)" fill="#C2C2C2"/>
<rect width="500" height="0.5" transform="translate(28 532) rotate(-30)" fill="#C2C2C2"/>
<rect width="500" height="0.5" transform="translate(32 535) rotate(-30)" fill="#C2C2C2"/>
<rect width="500" height="0.5" transform="translate(35 538) rotate(-30)" fill="#C2C2C2"/>
<rect width="500" height="0.5" transform="translate(38 542) rotate(-30)" fill="#C2C2C2"/>
<rect width="500" height="0.5" transform="translate(41 545) rotate(-30)" fill="#C2C2C2"/>
<rect width="500" height="0.5" transform="translate(43 549) rotate(-30)" fill="#C2C2C2"/>
<rect width="500" height="0.5" transform="translate(46 552) rotate(-30)" fill="#C2C2C2"/>
</g>
<rect x="0.25" y="0.25" width="99.5" height="349.5" stroke="#C2C2C2" stroke-width="0.5"/>
<defs>
<clipPath id="clip0_32_1821">
<rect width="100" height="350" fill="white"/>
</clipPath>
</defs>
</svg>
