<svg width="1440" height="135" viewBox="0 0 1440 135" fill="none" xmlns="http://www.w3.org/2000/svg">
<g clip-path="url(#clip0_171_8)">
<path d="M299.48 8.99999V21.6H256.5V50.86H293.46V63.46H256.5V107H242.5V8.99999H299.48ZM341.786 35.6C346.826 35.6 351.493 36.5333 355.786 38.4C360.173 40.1733 363.906 42.6933 366.986 45.96C370.16 49.1333 372.586 52.96 374.266 57.44C376.04 61.8267 376.926 66.68 376.926 72V77.04H333.106V65.84H363.206C362.086 60.3333 359.66 55.9 355.926 52.54C352.1 49.18 347.386 47.5 341.786 47.5C338.426 47.5 335.393 48.1067 332.686 49.32C330.073 50.5333 327.833 52.2133 325.966 54.36C324.006 56.5067 322.513 59.0267 321.486 61.92C320.46 64.8133 319.946 67.9867 319.946 71.44C319.946 75.08 320.553 78.3933 321.766 81.38C322.886 84.46 324.52 87.12 326.666 89.36C328.813 91.5067 331.333 93.2333 334.226 94.54C337.12 95.7533 340.293 96.36 343.746 96.36C346.64 96.36 349.206 95.9867 351.446 95.24C353.686 94.4 355.6 93.4667 357.186 92.44C358.866 91.4133 360.22 90.34 361.246 89.22C362.366 88.1 363.206 87.2133 363.766 86.56L373.566 93.7C371.233 96.5933 368.9 98.9733 366.566 100.84C364.233 102.707 361.853 104.2 359.426 105.32C357 106.44 354.48 107.233 351.866 107.7C349.16 108.167 346.266 108.4 343.186 108.4C337.96 108.4 333.106 107.513 328.626 105.74C324.146 103.873 320.273 101.307 317.006 98.04C313.74 94.7733 311.173 90.9 309.306 86.42C307.44 81.94 306.506 77.04 306.506 71.72C306.506 66.4933 307.393 61.6867 309.166 57.3C310.94 52.9133 313.366 49.0867 316.446 45.82C319.62 42.6467 323.353 40.1267 327.646 38.26C331.94 36.4867 336.653 35.6 341.786 35.6ZM404.924 3.4V107H391.764V3.4H404.924ZM436.233 37V107H423.073V37H436.233ZM423.073 8.99999H436.233V22.16H423.073V8.99999ZM491.901 35.6C496.568 35.6 500.861 36.5333 504.781 38.4C508.795 40.1733 512.201 42.6933 515.001 45.96C517.895 49.1333 520.135 52.96 521.721 57.44C523.401 61.92 524.241 66.7733 524.241 72C524.241 77.2267 523.401 82.08 521.721 86.56C520.135 91.04 517.895 94.9133 515.001 98.18C512.201 101.353 508.795 103.873 504.781 105.74C500.861 107.513 496.568 108.4 491.901 108.4C486.955 108.4 482.381 107.373 478.181 105.32C473.981 103.267 470.388 100.373 467.401 96.64V135H454.381V37H467.401V47.36C470.388 43.6267 473.981 40.7333 478.181 38.68C482.381 36.6267 486.955 35.6 491.901 35.6ZM473.701 89.36C475.661 91.6 477.948 93.3267 480.561 94.54C483.175 95.7533 486.021 96.36 489.101 96.36C492.275 96.36 495.168 95.7533 497.781 94.54C500.488 93.3267 502.775 91.6 504.641 89.36C506.601 87.2133 508.095 84.6467 509.121 81.66C510.241 78.7667 510.801 75.5467 510.801 72C510.801 68.4533 510.241 65.2333 509.121 62.34C508.095 59.3533 506.601 56.7867 504.641 54.64C502.775 52.4 500.488 50.6733 497.781 49.46C495.168 48.2467 492.275 47.64 489.101 47.64C486.021 47.64 483.175 48.2467 480.561 49.46C477.948 50.6733 475.661 52.4 473.701 54.64C471.835 56.7867 470.341 59.3533 469.221 62.34C468.101 65.2333 467.541 68.4533 467.541 72C467.541 75.5467 468.101 78.7667 469.221 81.66C470.341 84.6467 471.835 87.2133 473.701 89.36ZM570.653 35.6C575.693 35.6 580.36 36.5333 584.653 38.4C589.04 40.1733 592.773 42.6933 595.853 45.96C599.027 49.1333 601.453 52.96 603.133 57.44C604.907 61.8267 605.793 66.68 605.793 72V77.04H561.973V65.84H592.073C590.953 60.3333 588.527 55.9 584.793 52.54C580.967 49.18 576.253 47.5 570.653 47.5C567.293 47.5 564.26 48.1067 561.553 49.32C558.94 50.5333 556.7 52.2133 554.833 54.36C552.873 56.5067 551.38 59.0267 550.353 61.92C549.327 64.8133 548.813 67.9867 548.813 71.44C548.813 75.08 549.42 78.3933 550.633 81.38C551.753 84.46 553.387 87.12 555.533 89.36C557.68 91.5067 560.2 93.2333 563.093 94.54C565.987 95.7533 569.16 96.36 572.613 96.36C575.507 96.36 578.073 95.9867 580.313 95.24C582.553 94.4 584.467 93.4667 586.053 92.44C587.733 91.4133 589.087 90.34 590.113 89.22C591.233 88.1 592.073 87.2133 592.633 86.56L602.433 93.7C600.1 96.5933 597.767 98.9733 595.433 100.84C593.1 102.707 590.72 104.2 588.293 105.32C585.867 106.44 583.347 107.233 580.733 107.7C578.027 108.167 575.133 108.4 572.053 108.4C566.827 108.4 561.973 107.513 557.493 105.74C553.013 103.873 549.14 101.307 545.873 98.04C542.607 94.7733 540.04 90.9 538.173 86.42C536.307 81.94 535.373 77.04 535.373 71.72C535.373 66.4933 536.26 61.6867 538.033 57.3C539.807 52.9133 542.233 49.0867 545.313 45.82C548.487 42.6467 552.22 40.1267 556.513 38.26C560.807 36.4867 565.52 35.6 570.653 35.6ZM675.943 8.99999L709.543 79.14L743.143 8.99999H756.583V107H742.863V37.98L715.983 94.4H703.103L676.223 37.98V107H662.503V8.99999H675.943ZM778.037 44.28C782.517 41.2933 787.184 39.1 792.037 37.7C796.891 36.3 801.697 35.6 806.457 35.6C815.137 35.6 821.997 37.7933 827.037 42.18C832.077 46.66 834.597 53.2867 834.597 62.06V107H823.537L821.437 98.6C818.357 101.867 814.811 104.34 810.797 106.02C806.691 107.793 802.397 108.68 797.917 108.68C794.277 108.68 790.964 108.167 787.977 107.14C784.991 106.02 782.424 104.527 780.277 102.66C778.131 100.7 776.451 98.3667 775.237 95.66C774.024 92.9533 773.417 89.92 773.417 86.56C773.417 79.7467 775.751 74.4267 780.417 70.6C785.177 66.68 791.897 64.72 800.577 64.72H807.997V76.06H800.577C800.484 76.06 800.391 76.06 800.297 76.06C796.004 76.06 792.691 76.9467 790.357 78.72C788.024 80.4933 786.857 83.0133 786.857 86.28C786.857 89.4533 787.977 91.9733 790.217 93.84C792.457 95.7067 795.444 96.64 799.177 96.64C801.977 96.64 804.731 96.08 807.437 94.96C810.144 93.9333 812.524 92.5333 814.577 90.76C816.631 88.9867 818.264 86.98 819.477 84.74C820.784 82.4067 821.437 80.0267 821.437 77.6V62.06C821.437 52.4467 816.164 47.64 805.617 47.64C801.137 47.64 797.077 48.3867 793.437 49.88C789.891 51.28 786.811 52.96 784.197 54.92L778.037 44.28ZM866.623 37V48.62C869.33 44.6067 872.783 41.4333 876.983 39.1C881.183 36.7667 885.943 35.6 891.263 35.6C895.463 35.6 899.383 36.3467 903.023 37.84L896.023 50.86C892.757 49.2733 889.583 48.48 886.503 48.48C883.703 48.48 881.09 49.04 878.663 50.16C876.237 51.3733 874.137 52.82 872.363 54.5C870.59 56.2733 869.19 58.1867 868.163 60.24C867.23 62.3867 866.763 64.3933 866.763 66.26L866.623 107H853.463V37H866.623ZM937.821 35.6C942.674 35.6 947.154 36.5333 951.261 38.4C955.368 40.2667 958.868 43.02 961.761 46.66L963.861 37H974.781V135H961.761V96.78C958.774 100.513 955.181 103.36 950.981 105.32C946.874 107.373 942.348 108.4 937.401 108.4C932.734 108.4 928.394 107.513 924.381 105.74C920.461 103.873 917.054 101.353 914.161 98.18C911.361 94.9133 909.168 91.04 907.581 86.56C905.901 82.08 905.061 77.2267 905.061 72C905.061 66.68 905.901 61.8267 907.581 57.44C909.168 52.96 911.408 49.1333 914.301 45.96C917.194 42.6933 920.648 40.1267 924.661 38.26C928.674 36.4867 933.061 35.6 937.821 35.6ZM924.661 89.36C926.528 91.5067 928.814 93.1867 931.521 94.4C934.134 95.6133 936.981 96.22 940.061 96.22C943.234 96.22 946.128 95.6133 948.741 94.4C951.354 93.1867 953.641 91.5067 955.601 89.36C957.468 87.2133 958.961 84.6467 960.081 81.66C961.201 78.7667 961.761 75.5467 961.761 72C961.761 68.4533 961.201 65.2333 960.081 62.34C958.961 59.3533 957.468 56.74 955.601 54.5C953.641 52.3533 951.354 50.6733 948.741 49.46C946.128 48.2467 943.234 47.64 940.061 47.64C936.981 47.64 934.134 48.2467 931.521 49.46C928.814 50.6733 926.528 52.3533 924.661 54.5C922.701 56.74 921.161 59.3533 920.041 62.34C919.014 65.2333 918.501 68.4533 918.501 72C918.501 75.4533 919.061 78.6733 920.181 81.66C921.208 84.6467 922.701 87.2133 924.661 89.36ZM1006.08 37V79.84C1006.08 90.8533 1010.98 96.36 1020.78 96.36C1021.62 96.36 1022.46 96.36 1023.3 96.36C1025.63 96.1733 1027.82 95.4733 1029.88 94.26C1031.93 93.14 1033.7 91.7867 1035.2 90.2C1036.69 88.6133 1037.86 86.8867 1038.7 85.02C1039.54 83.1533 1039.96 81.4267 1039.96 79.84V37H1053.12V107H1042.2L1039.96 97.06C1037.62 100.047 1034.64 102.707 1031 105.04C1027.36 107.28 1022.92 108.4 1017.7 108.4C1014.15 108.4 1010.88 107.793 1007.9 106.58C1004.91 105.367 1002.3 103.547 1000.06 101.12C997.91 98.7867 996.183 95.8 994.876 92.16C993.663 88.6133 993.056 84.5067 993.056 79.84V37H1006.08ZM1103.04 35.6C1108.08 35.6 1112.74 36.5333 1117.04 38.4C1121.42 40.1733 1125.16 42.6933 1128.24 45.96C1131.41 49.1333 1133.84 52.96 1135.52 57.44C1137.29 61.8267 1138.18 66.68 1138.18 72V77.04H1094.36V65.84H1124.46C1123.34 60.3333 1120.91 55.9 1117.18 52.54C1113.35 49.18 1108.64 47.5 1103.04 47.5C1099.68 47.5 1096.64 48.1067 1093.94 49.32C1091.32 50.5333 1089.08 52.2133 1087.22 54.36C1085.26 56.5067 1083.76 59.0267 1082.74 61.92C1081.71 64.8133 1081.2 67.9867 1081.2 71.44C1081.2 75.08 1081.8 78.3933 1083.02 81.38C1084.14 84.46 1085.77 87.12 1087.92 89.36C1090.06 91.5067 1092.58 93.2333 1095.48 94.54C1098.37 95.7533 1101.54 96.36 1105 96.36C1107.89 96.36 1110.46 95.9867 1112.7 95.24C1114.94 94.4 1116.85 93.4667 1118.44 92.44C1120.12 91.4133 1121.47 90.34 1122.5 89.22C1123.62 88.1 1124.46 87.2133 1125.02 86.56L1134.82 93.7C1132.48 96.5933 1130.15 98.9733 1127.82 100.84C1125.48 102.707 1123.1 104.2 1120.68 105.32C1118.25 106.44 1115.73 107.233 1113.12 107.7C1110.41 108.167 1107.52 108.4 1104.44 108.4C1099.21 108.4 1094.36 107.513 1089.88 105.74C1085.4 103.873 1081.52 101.307 1078.26 98.04C1074.99 94.7733 1072.42 90.9 1070.56 86.42C1068.69 81.94 1067.76 77.04 1067.76 71.72C1067.76 66.4933 1068.64 61.6867 1070.42 57.3C1072.19 52.9133 1074.62 49.0867 1077.7 45.82C1080.87 42.6467 1084.6 40.1267 1088.9 38.26C1093.19 36.4867 1097.9 35.6 1103.04 35.6ZM1175.15 35.6C1179.16 35.6 1182.85 36.16 1186.21 37.28C1189.57 38.3067 1192.88 39.9867 1196.15 42.32L1189.85 52.4C1185.65 49.5067 1180.89 47.8733 1175.57 47.5C1172.49 47.5 1170.06 48.1533 1168.29 49.46C1166.52 50.7667 1165.63 52.7267 1165.63 55.34C1165.63 55.34 1165.63 55.3867 1165.63 55.48C1165.63 57.72 1166.47 59.68 1168.15 61.36C1169.92 62.9467 1173.14 64.6733 1177.81 66.54C1185 69.5267 1190.18 72.6533 1193.35 75.92C1196.52 79.28 1198.11 83.1533 1198.11 87.54C1198.11 90.4333 1197.5 93.14 1196.29 95.66C1195.08 98.2733 1193.4 100.513 1191.25 102.38C1189.2 104.247 1186.77 105.693 1183.97 106.72C1181.08 107.84 1178.04 108.4 1174.87 108.4C1168.71 108.4 1163.44 107.747 1159.05 106.44C1154.76 105.04 1151.12 103.36 1148.13 101.4L1153.87 90.76C1157.04 92.6267 1160.12 94.0267 1163.11 94.96C1166.1 95.8933 1169.6 96.36 1173.61 96.36C1176.69 96.36 1179.3 95.5667 1181.45 93.98C1183.6 92.3933 1184.67 90.48 1184.67 88.24C1184.67 85.6267 1183.41 83.5267 1180.89 81.94C1178.28 80.3533 1175.2 78.7667 1171.65 77.18L1168.15 75.5C1162.55 72.8867 1158.49 69.8533 1155.97 66.4C1153.45 63.04 1152.19 59.0733 1152.19 54.5C1152.19 48.4333 1154.2 43.7667 1158.21 40.5C1162.32 37.2333 1167.92 35.6 1175.01 35.6C1175.1 35.6 1175.15 35.6 1175.15 35.6Z" fill="white"/>
<g clip-path="url(#clip1_171_8)">
<mask id="path-2-inside-1_171_8" fill="white">
<path d="M0 3H1440V135H0V3Z"/>
</mask>
<mask id="path-4-inside-2_171_8" fill="white">
<path d="M0 37H1440V107H0V37Z"/>
</mask>
<path d="M0 107.5H2.5V106.5H0V107.5ZM7.5 107.5H12.5V106.5H7.5V107.5ZM17.5 107.5H22.5V106.5H17.5V107.5ZM27.5 107.5H32.5V106.5H27.5V107.5ZM37.5 107.5H42.5V106.5H37.5V107.5ZM47.5 107.5H52.5V106.5H47.5V107.5ZM57.5 107.5H62.5V106.5H57.5V107.5ZM67.5 107.5H72.5V106.5H67.5V107.5ZM77.5 107.5H82.5V106.5H77.5V107.5ZM87.5 107.5H92.5V106.5H87.5V107.5ZM97.5 107.5H102.5V106.5H97.5V107.5ZM107.5 107.5H112.5V106.5H107.5V107.5ZM117.5 107.5H122.5V106.5H117.5V107.5ZM127.5 107.5H132.5V106.5H127.5V107.5ZM137.5 107.5H142.5V106.5H137.5V107.5ZM147.5 107.5H152.5V106.5H147.5V107.5ZM157.5 107.5H162.5V106.5H157.5V107.5ZM167.5 107.5H172.5V106.5H167.5V107.5ZM177.5 107.5H182.5V106.5H177.5V107.5ZM187.5 107.5H192.5V106.5H187.5V107.5ZM197.5 107.5H202.5V106.5H197.5V107.5ZM207.5 107.5H212.5V106.5H207.5V107.5ZM217.5 107.5H222.5V106.5H217.5V107.5ZM227.5 107.5H232.5V106.5H227.5V107.5ZM237.5 107.5H242.5V106.5H237.5V107.5ZM247.5 107.5H252.5V106.5H247.5V107.5ZM257.5 107.5H262.5V106.5H257.5V107.5ZM267.5 107.5H272.5V106.5H267.5V107.5ZM277.5 107.5H282.5V106.5H277.5V107.5ZM287.5 107.5H292.5V106.5H287.5V107.5ZM297.5 107.5H302.5V106.5H297.5V107.5ZM307.5 107.5H312.5V106.5H307.5V107.5ZM317.5 107.5H322.5V106.5H317.5V107.5ZM327.5 107.5H332.5V106.5H327.5V107.5ZM337.5 107.5H342.5V106.5H337.5V107.5ZM347.5 107.5H352.5V106.5H347.5V107.5ZM357.5 107.5H362.5V106.5H357.5V107.5ZM367.5 107.5H372.5V106.5H367.5V107.5ZM377.5 107.5H382.5V106.5H377.5V107.5ZM387.5 107.5H392.5V106.5H387.5V107.5ZM397.5 107.5H402.5V106.5H397.5V107.5ZM407.5 107.5H412.5V106.5H407.5V107.5ZM417.5 107.5H422.5V106.5H417.5V107.5ZM427.5 107.5H432.5V106.5H427.5V107.5ZM437.5 107.5H442.5V106.5H437.5V107.5ZM447.5 107.5H452.5V106.5H447.5V107.5ZM457.5 107.5H462.5V106.5H457.5V107.5ZM467.5 107.5H472.5V106.5H467.5V107.5ZM477.5 107.5H482.5V106.5H477.5V107.5ZM487.5 107.5H492.5V106.5H487.5V107.5ZM497.5 107.5H502.5V106.5H497.5V107.5ZM507.5 107.5H512.5V106.5H507.5V107.5ZM517.5 107.5H522.5V106.5H517.5V107.5ZM527.5 107.5H532.5V106.5H527.5V107.5ZM537.5 107.5H542.5V106.5H537.5V107.5ZM547.5 107.5H552.5V106.5H547.5V107.5ZM557.5 107.5H562.5V106.5H557.5V107.5ZM567.5 107.5H572.5V106.5H567.5V107.5ZM577.5 107.5H582.5V106.5H577.5V107.5ZM587.5 107.5H592.5V106.5H587.5V107.5ZM597.5 107.5H602.5V106.5H597.5V107.5ZM607.5 107.5H612.5V106.5H607.5V107.5ZM617.5 107.5H622.5V106.5H617.5V107.5ZM627.5 107.5H632.5V106.5H627.5V107.5ZM637.5 107.5H642.5V106.5H637.5V107.5ZM647.5 107.5H652.5V106.5H647.5V107.5ZM657.5 107.5H662.5V106.5H657.5V107.5ZM667.5 107.5H672.5V106.5H667.5V107.5ZM677.5 107.5H682.5V106.5H677.5V107.5ZM687.5 107.5H692.5V106.5H687.5V107.5ZM697.5 107.5H702.5V106.5H697.5V107.5ZM707.5 107.5H712.5V106.5H707.5V107.5ZM717.5 107.5H722.5V106.5H717.5V107.5ZM727.5 107.5H732.5V106.5H727.5V107.5ZM737.5 107.5H742.5V106.5H737.5V107.5ZM747.5 107.5H752.5V106.5H747.5V107.5ZM757.5 107.5H762.5V106.5H757.5V107.5ZM767.5 107.5H772.5V106.5H767.5V107.5ZM777.5 107.5H782.5V106.5H777.5V107.5ZM787.5 107.5H792.5V106.5H787.5V107.5ZM797.5 107.5H802.5V106.5H797.5V107.5ZM807.5 107.5H812.5V106.5H807.5V107.5ZM817.5 107.5H822.5V106.5H817.5V107.5ZM827.5 107.5H832.5V106.5H827.5V107.5ZM837.5 107.5H842.5V106.5H837.5V107.5ZM847.5 107.5H852.5V106.5H847.5V107.5ZM857.5 107.5H862.5V106.5H857.5V107.5ZM867.5 107.5H872.5V106.5H867.5V107.5ZM877.5 107.5H882.5V106.5H877.5V107.5ZM887.5 107.5H892.5V106.5H887.5V107.5ZM897.5 107.5H902.5V106.5H897.5V107.5ZM907.5 107.5H912.5V106.5H907.5V107.5ZM917.5 107.5H922.5V106.5H917.5V107.5ZM927.5 107.5H932.5V106.5H927.5V107.5ZM937.5 107.5H942.5V106.5H937.5V107.5ZM947.5 107.5H952.5V106.5H947.5V107.5ZM957.5 107.5H962.5V106.5H957.5V107.5ZM967.5 107.5H972.5V106.5H967.5V107.5ZM977.5 107.5H982.5V106.5H977.5V107.5ZM987.5 107.5H992.5V106.5H987.5V107.5ZM997.5 107.5H1002.5V106.5H997.5V107.5ZM1007.5 107.5H1012.5V106.5H1007.5V107.5ZM1017.5 107.5H1022.5V106.5H1017.5V107.5ZM1027.5 107.5H1032.5V106.5H1027.5V107.5ZM1037.5 107.5H1042.5V106.5H1037.5V107.5ZM1047.5 107.5H1052.5V106.5H1047.5V107.5ZM1057.5 107.5H1062.5V106.5H1057.5V107.5ZM1067.5 107.5H1072.5V106.5H1067.5V107.5ZM1077.5 107.5H1082.5V106.5H1077.5V107.5ZM1087.5 107.5H1092.5V106.5H1087.5V107.5ZM1097.5 107.5H1102.5V106.5H1097.5V107.5ZM1107.5 107.5H1112.5V106.5H1107.5V107.5ZM1117.5 107.5H1122.5V106.5H1117.5V107.5ZM1127.5 107.5H1132.5V106.5H1127.5V107.5ZM1137.5 107.5H1142.5V106.5H1137.5V107.5ZM1147.5 107.5H1152.5V106.5H1147.5V107.5ZM1157.5 107.5H1162.5V106.5H1157.5V107.5ZM1167.5 107.5H1172.5V106.5H1167.5V107.5ZM1177.5 107.5H1182.5V106.5H1177.5V107.5ZM1187.5 107.5H1192.5V106.5H1187.5V107.5ZM1197.5 107.5H1202.5V106.5H1197.5V107.5ZM1207.5 107.5H1212.5V106.5H1207.5V107.5ZM1217.5 107.5H1222.5V106.5H1217.5V107.5ZM1227.5 107.5H1232.5V106.5H1227.5V107.5ZM1237.5 107.5H1242.5V106.5H1237.5V107.5ZM1247.5 107.5H1252.5V106.5H1247.5V107.5ZM1257.5 107.5H1262.5V106.5H1257.5V107.5ZM1267.5 107.5H1272.5V106.5H1267.5V107.5ZM1277.5 107.5H1282.5V106.5H1277.5V107.5ZM1287.5 107.5H1292.5V106.5H1287.5V107.5ZM1297.5 107.5H1302.5V106.5H1297.5V107.5ZM1307.5 107.5H1312.5V106.5H1307.5V107.5ZM1317.5 107.5H1322.5V106.5H1317.5V107.5ZM1327.5 107.5H1332.5V106.5H1327.5V107.5ZM1337.5 107.5H1342.5V106.5H1337.5V107.5ZM1347.5 107.5H1352.5V106.5H1347.5V107.5ZM1357.5 107.5H1362.5V106.5H1357.5V107.5ZM1367.5 107.5H1372.5V106.5H1367.5V107.5ZM1377.5 107.5H1382.5V106.5H1377.5V107.5ZM1387.5 107.5H1392.5V106.5H1387.5V107.5ZM1397.5 107.5H1402.5V106.5H1397.5V107.5ZM1407.5 107.5H1412.5V106.5H1407.5V107.5ZM1417.5 107.5H1422.5V106.5H1417.5V107.5ZM1427.5 107.5H1432.5V106.5H1427.5V107.5ZM1437.5 107.5H1440V106.5H1437.5V107.5ZM1440 36.5H1437.5V37.5H1440V36.5ZM1432.5 36.5H1427.5V37.5H1432.5V36.5ZM1422.5 36.5H1417.5V37.5H1422.5V36.5ZM1412.5 36.5H1407.5V37.5H1412.5V36.5ZM1402.5 36.5H1397.5V37.5H1402.5V36.5ZM1392.5 36.5H1387.5V37.5H1392.5V36.5ZM1382.5 36.5H1377.5V37.5H1382.5V36.5ZM1372.5 36.5H1367.5V37.5H1372.5V36.5ZM1362.5 36.5H1357.5V37.5H1362.5V36.5ZM1352.5 36.5H1347.5V37.5H1352.5V36.5ZM1342.5 36.5H1337.5V37.5H1342.5V36.5ZM1332.5 36.5H1327.5V37.5H1332.5V36.5ZM1322.5 36.5H1317.5V37.5H1322.5V36.5ZM1312.5 36.5H1307.5V37.5H1312.5V36.5ZM1302.5 36.5H1297.5V37.5H1302.5V36.5ZM1292.5 36.5H1287.5V37.5H1292.5V36.5ZM1282.5 36.5H1277.5V37.5H1282.5V36.5ZM1272.5 36.5H1267.5V37.5H1272.5V36.5ZM1262.5 36.5H1257.5V37.5H1262.5V36.5ZM1252.5 36.5H1247.5V37.5H1252.5V36.5ZM1242.5 36.5H1237.5V37.5H1242.5V36.5ZM1232.5 36.5H1227.5V37.5H1232.5V36.5ZM1222.5 36.5H1217.5V37.5H1222.5V36.5ZM1212.5 36.5H1207.5V37.5H1212.5V36.5ZM1202.5 36.5H1197.5V37.5H1202.5V36.5ZM1192.5 36.5H1187.5V37.5H1192.5V36.5ZM1182.5 36.5H1177.5V37.5H1182.5V36.5ZM1172.5 36.5H1167.5V37.5H1172.5V36.5ZM1162.5 36.5H1157.5V37.5H1162.5V36.5ZM1152.5 36.5H1147.5V37.5H1152.5V36.5ZM1142.5 36.5H1137.5V37.5H1142.5V36.5ZM1132.5 36.5H1127.5V37.5H1132.5V36.5ZM1122.5 36.5H1117.5V37.5H1122.5V36.5ZM1112.5 36.5H1107.5V37.5H1112.5V36.5ZM1102.5 36.5H1097.5V37.5H1102.5V36.5ZM1092.5 36.5H1087.5V37.5H1092.5V36.5ZM1082.5 36.5H1077.5V37.5H1082.5V36.5ZM1072.5 36.5H1067.5V37.5H1072.5V36.5ZM1062.5 36.5H1057.5V37.5H1062.5V36.5ZM1052.5 36.5H1047.5V37.5H1052.5V36.5ZM1042.5 36.5H1037.5V37.5H1042.5V36.5ZM1032.5 36.5H1027.5V37.5H1032.5V36.5ZM1022.5 36.5H1017.5V37.5H1022.5V36.5ZM1012.5 36.5H1007.5V37.5H1012.5V36.5ZM1002.5 36.5H997.5V37.5H1002.5V36.5ZM992.5 36.5H987.5V37.5H992.5V36.5ZM982.5 36.5H977.5V37.5H982.5V36.5ZM972.5 36.5H967.5V37.5H972.5V36.5ZM962.5 36.5H957.5V37.5H962.5V36.5ZM952.5 36.5H947.5V37.5H952.5V36.5ZM942.5 36.5H937.5V37.5H942.5V36.5ZM932.5 36.5H927.5V37.5H932.5V36.5ZM922.5 36.5H917.5V37.5H922.5V36.5ZM912.5 36.5H907.5V37.5H912.5V36.5ZM902.5 36.5H897.5V37.5H902.5V36.5ZM892.5 36.5H887.5V37.5H892.5V36.5ZM882.5 36.5H877.5V37.5H882.5V36.5ZM872.5 36.5H867.5V37.5H872.5V36.5ZM862.5 36.5H857.5V37.5H862.5V36.5ZM852.5 36.5H847.5V37.5H852.5V36.5ZM842.5 36.5H837.5V37.5H842.5V36.5ZM832.5 36.5H827.5V37.5H832.5V36.5ZM822.5 36.5H817.5V37.5H822.5V36.5ZM812.5 36.5H807.5V37.5H812.5V36.5ZM802.5 36.5H797.5V37.5H802.5V36.5ZM792.5 36.5H787.5V37.5H792.5V36.5ZM782.5 36.5H777.5V37.5H782.5V36.5ZM772.5 36.5H767.5V37.5H772.5V36.5ZM762.5 36.5H757.5V37.5H762.5V36.5ZM752.5 36.5H747.5V37.5H752.5V36.5ZM742.5 36.5H737.5V37.5H742.5V36.5ZM732.5 36.5H727.5V37.5H732.5V36.5ZM722.5 36.5H717.5V37.5H722.5V36.5ZM712.5 36.5H707.5V37.5H712.5V36.5ZM702.5 36.5H697.5V37.5H702.5V36.5ZM692.5 36.5H687.5V37.5H692.5V36.5ZM682.5 36.5H677.5V37.5H682.5V36.5ZM672.5 36.5H667.5V37.5H672.5V36.5ZM662.5 36.5H657.5V37.5H662.5V36.5ZM652.5 36.5H647.5V37.5H652.5V36.5ZM642.5 36.5H637.5V37.5H642.5V36.5ZM632.5 36.5H627.5V37.5H632.5V36.5ZM622.5 36.5H617.5V37.5H622.5V36.5ZM612.5 36.5H607.5V37.5H612.5V36.5ZM602.5 36.5H597.5V37.5H602.5V36.5ZM592.5 36.5H587.5V37.5H592.5V36.5ZM582.5 36.5H577.5V37.5H582.5V36.5ZM572.5 36.5H567.5V37.5H572.5V36.5ZM562.5 36.5H557.5V37.5H562.5V36.5ZM552.5 36.5H547.5V37.5H552.5V36.5ZM542.5 36.5H537.5V37.5H542.5V36.5ZM532.5 36.5H527.5V37.5H532.5V36.5ZM522.5 36.5H517.5V37.5H522.5V36.5ZM512.5 36.5H507.5V37.5H512.5V36.5ZM502.5 36.5H497.5V37.5H502.5V36.5ZM492.5 36.5H487.5V37.5H492.5V36.5ZM482.5 36.5H477.5V37.5H482.5V36.5ZM472.5 36.5H467.5V37.5H472.5V36.5ZM462.5 36.5H457.5V37.5H462.5V36.5ZM452.5 36.5H447.5V37.5H452.5V36.5ZM442.5 36.5H437.5V37.5H442.5V36.5ZM432.5 36.5H427.5V37.5H432.5V36.5ZM422.5 36.5H417.5V37.5H422.5V36.5ZM412.5 36.5H407.5V37.5H412.5V36.5ZM402.5 36.5H397.5V37.5H402.5V36.5ZM392.5 36.5H387.5V37.5H392.5V36.5ZM382.5 36.5H377.5V37.5H382.5V36.5ZM372.5 36.5H367.5V37.5H372.5V36.5ZM362.5 36.5H357.5V37.5H362.5V36.5ZM352.5 36.5H347.5V37.5H352.5V36.5ZM342.5 36.5H337.5V37.5H342.5V36.5ZM332.5 36.5H327.5V37.5H332.5V36.5ZM322.5 36.5H317.5V37.5H322.5V36.5ZM312.5 36.5H307.5V37.5H312.5V36.5ZM302.5 36.5H297.5V37.5H302.5V36.5ZM292.5 36.5H287.5V37.5H292.5V36.5ZM282.5 36.5H277.5V37.5H282.5V36.5ZM272.5 36.5H267.5V37.5H272.5V36.5ZM262.5 36.5H257.5V37.5H262.5V36.5ZM252.5 36.5H247.5V37.5H252.5V36.5ZM242.5 36.5H237.5V37.5H242.5V36.5ZM232.5 36.5H227.5V37.5H232.5V36.5ZM222.5 36.5H217.5V37.5H222.5V36.5ZM212.5 36.5H207.5V37.5H212.5V36.5ZM202.5 36.5H197.5V37.5H202.5V36.5ZM192.5 36.5H187.5V37.5H192.5V36.5ZM182.5 36.5H177.5V37.5H182.5V36.5ZM172.5 36.5H167.5V37.5H172.5V36.5ZM162.5 36.5H157.5V37.5H162.5V36.5ZM152.5 36.5H147.5V37.5H152.5V36.5ZM142.5 36.5H137.5V37.5H142.5V36.5ZM132.5 36.5H127.5V37.5H132.5V36.5ZM122.5 36.5H117.5V37.5H122.5V36.5ZM112.5 36.5H107.5V37.5H112.5V36.5ZM102.5 36.5H97.5V37.5H102.5V36.5ZM92.5 36.5H87.5V37.5H92.5V36.5ZM82.5 36.5H77.5V37.5H82.5V36.5ZM72.5 36.5H67.5V37.5H72.5V36.5ZM62.5 36.5H57.5V37.5H62.5V36.5ZM52.5 36.5H47.5V37.5H52.5V36.5ZM42.5 36.5H37.5V37.5H42.5V36.5ZM32.5 36.5H27.5V37.5H32.5V36.5ZM22.5 36.5H17.5V37.5H22.5V36.5ZM12.5 36.5H7.49997V37.5H12.5V36.5ZM2.49999 36.5H0V37.5H2.49999V36.5ZM0 108H2.5V106H0V108ZM7.5 108H12.5V106H7.5V108ZM17.5 108H22.5V106H17.5V108ZM27.5 108H32.5V106H27.5V108ZM37.5 108H42.5V106H37.5V108ZM47.5 108H52.5V106H47.5V108ZM57.5 108H62.5V106H57.5V108ZM67.5 108H72.5V106H67.5V108ZM77.5 108H82.5V106H77.5V108ZM87.5 108H92.5V106H87.5V108ZM97.5 108H102.5V106H97.5V108ZM107.5 108H112.5V106H107.5V108ZM117.5 108H122.5V106H117.5V108ZM127.5 108H132.5V106H127.5V108ZM137.5 108H142.5V106H137.5V108ZM147.5 108H152.5V106H147.5V108ZM157.5 108H162.5V106H157.5V108ZM167.5 108H172.5V106H167.5V108ZM177.5 108H182.5V106H177.5V108ZM187.5 108H192.5V106H187.5V108ZM197.5 108H202.5V106H197.5V108ZM207.5 108H212.5V106H207.5V108ZM217.5 108H222.5V106H217.5V108ZM227.5 108H232.5V106H227.5V108ZM237.5 108H242.5V106H237.5V108ZM247.5 108H252.5V106H247.5V108ZM257.5 108H262.5V106H257.5V108ZM267.5 108H272.5V106H267.5V108ZM277.5 108H282.5V106H277.5V108ZM287.5 108H292.5V106H287.5V108ZM297.5 108H302.5V106H297.5V108ZM307.5 108H312.5V106H307.5V108ZM317.5 108H322.5V106H317.5V108ZM327.5 108H332.5V106H327.5V108ZM337.5 108H342.5V106H337.5V108ZM347.5 108H352.5V106H347.5V108ZM357.5 108H362.5V106H357.5V108ZM367.5 108H372.5V106H367.5V108ZM377.5 108H382.5V106H377.5V108ZM387.5 108H392.5V106H387.5V108ZM397.5 108H402.5V106H397.5V108ZM407.5 108H412.5V106H407.5V108ZM417.5 108H422.5V106H417.5V108ZM427.5 108H432.5V106H427.5V108ZM437.5 108H442.5V106H437.5V108ZM447.5 108H452.5V106H447.5V108ZM457.5 108H462.5V106H457.5V108ZM467.5 108H472.5V106H467.5V108ZM477.5 108H482.5V106H477.5V108ZM487.5 108H492.5V106H487.5V108ZM497.5 108H502.5V106H497.5V108ZM507.5 108H512.5V106H507.5V108ZM517.5 108H522.5V106H517.5V108ZM527.5 108H532.5V106H527.5V108ZM537.5 108H542.5V106H537.5V108ZM547.5 108H552.5V106H547.5V108ZM557.5 108H562.5V106H557.5V108ZM567.5 108H572.5V106H567.5V108ZM577.5 108H582.5V106H577.5V108ZM587.5 108H592.5V106H587.5V108ZM597.5 108H602.5V106H597.5V108ZM607.5 108H612.5V106H607.5V108ZM617.5 108H622.5V106H617.5V108ZM627.5 108H632.5V106H627.5V108ZM637.5 108H642.5V106H637.5V108ZM647.5 108H652.5V106H647.5V108ZM657.5 108H662.5V106H657.5V108ZM667.5 108H672.5V106H667.5V108ZM677.5 108H682.5V106H677.5V108ZM687.5 108H692.5V106H687.5V108ZM697.5 108H702.5V106H697.5V108ZM707.5 108H712.5V106H707.5V108ZM717.5 108H722.5V106H717.5V108ZM727.5 108H732.5V106H727.5V108ZM737.5 108H742.5V106H737.5V108ZM747.5 108H752.5V106H747.5V108ZM757.5 108H762.5V106H757.5V108ZM767.5 108H772.5V106H767.5V108ZM777.5 108H782.5V106H777.5V108ZM787.5 108H792.5V106H787.5V108ZM797.5 108H802.5V106H797.5V108ZM807.5 108H812.5V106H807.5V108ZM817.5 108H822.5V106H817.5V108ZM827.5 108H832.5V106H827.5V108ZM837.5 108H842.5V106H837.5V108ZM847.5 108H852.5V106H847.5V108ZM857.5 108H862.5V106H857.5V108ZM867.5 108H872.5V106H867.5V108ZM877.5 108H882.5V106H877.5V108ZM887.5 108H892.5V106H887.5V108ZM897.5 108H902.5V106H897.5V108ZM907.5 108H912.5V106H907.5V108ZM917.5 108H922.5V106H917.5V108ZM927.5 108H932.5V106H927.5V108ZM937.5 108H942.5V106H937.5V108ZM947.5 108H952.5V106H947.5V108ZM957.5 108H962.5V106H957.5V108ZM967.5 108H972.5V106H967.5V108ZM977.5 108H982.5V106H977.5V108ZM987.5 108H992.5V106H987.5V108ZM997.5 108H1002.5V106H997.5V108ZM1007.5 108H1012.5V106H1007.5V108ZM1017.5 108H1022.5V106H1017.5V108ZM1027.5 108H1032.5V106H1027.5V108ZM1037.5 108H1042.5V106H1037.5V108ZM1047.5 108H1052.5V106H1047.5V108ZM1057.5 108H1062.5V106H1057.5V108ZM1067.5 108H1072.5V106H1067.5V108ZM1077.5 108H1082.5V106H1077.5V108ZM1087.5 108H1092.5V106H1087.5V108ZM1097.5 108H1102.5V106H1097.5V108ZM1107.5 108H1112.5V106H1107.5V108ZM1117.5 108H1122.5V106H1117.5V108ZM1127.5 108H1132.5V106H1127.5V108ZM1137.5 108H1142.5V106H1137.5V108ZM1147.5 108H1152.5V106H1147.5V108ZM1157.5 108H1162.5V106H1157.5V108ZM1167.5 108H1172.5V106H1167.5V108ZM1177.5 108H1182.5V106H1177.5V108ZM1187.5 108H1192.5V106H1187.5V108ZM1197.5 108H1202.5V106H1197.5V108ZM1207.5 108H1212.5V106H1207.5V108ZM1217.5 108H1222.5V106H1217.5V108ZM1227.5 108H1232.5V106H1227.5V108ZM1237.5 108H1242.5V106H1237.5V108ZM1247.5 108H1252.5V106H1247.5V108ZM1257.5 108H1262.5V106H1257.5V108ZM1267.5 108H1272.5V106H1267.5V108ZM1277.5 108H1282.5V106H1277.5V108ZM1287.5 108H1292.5V106H1287.5V108ZM1297.5 108H1302.5V106H1297.5V108ZM1307.5 108H1312.5V106H1307.5V108ZM1317.5 108H1322.5V106H1317.5V108ZM1327.5 108H1332.5V106H1327.5V108ZM1337.5 108H1342.5V106H1337.5V108ZM1347.5 108H1352.5V106H1347.5V108ZM1357.5 108H1362.5V106H1357.5V108ZM1367.5 108H1372.5V106H1367.5V108ZM1377.5 108H1382.5V106H1377.5V108ZM1387.5 108H1392.5V106H1387.5V108ZM1397.5 108H1402.5V106H1397.5V108ZM1407.5 108H1412.5V106H1407.5V108ZM1417.5 108H1422.5V106H1417.5V108ZM1427.5 108H1432.5V106H1427.5V108ZM1437.5 108H1440V106H1437.5V108ZM1440 36H1437.5V38H1440V36ZM1432.5 36H1427.5V38H1432.5V36ZM1422.5 36H1417.5V38H1422.5V36ZM1412.5 36H1407.5V38H1412.5V36ZM1402.5 36H1397.5V38H1402.5V36ZM1392.5 36H1387.5V38H1392.5V36ZM1382.5 36H1377.5V38H1382.5V36ZM1372.5 36H1367.5V38H1372.5V36ZM1362.5 36H1357.5V38H1362.5V36ZM1352.5 36H1347.5V38H1352.5V36ZM1342.5 36H1337.5V38H1342.5V36ZM1332.5 36H1327.5V38H1332.5V36ZM1322.5 36H1317.5V38H1322.5V36ZM1312.5 36H1307.5V38H1312.5V36ZM1302.5 36H1297.5V38H1302.5V36ZM1292.5 36H1287.5V38H1292.5V36ZM1282.5 36H1277.5V38H1282.5V36ZM1272.5 36H1267.5V38H1272.5V36ZM1262.5 36H1257.5V38H1262.5V36ZM1252.5 36H1247.5V38H1252.5V36ZM1242.5 36H1237.5V38H1242.5V36ZM1232.5 36H1227.5V38H1232.5V36ZM1222.5 36H1217.5V38H1222.5V36ZM1212.5 36H1207.5V38H1212.5V36ZM1202.5 36H1197.5V38H1202.5V36ZM1192.5 36H1187.5V38H1192.5V36ZM1182.5 36H1177.5V38H1182.5V36ZM1172.5 36H1167.5V38H1172.5V36ZM1162.5 36H1157.5V38H1162.5V36ZM1152.5 36H1147.5V38H1152.5V36ZM1142.5 36H1137.5V38H1142.5V36ZM1132.5 36H1127.5V38H1132.5V36ZM1122.5 36H1117.5V38H1122.5V36ZM1112.5 36H1107.5V38H1112.5V36ZM1102.5 36H1097.5V38H1102.5V36ZM1092.5 36H1087.5V38H1092.5V36ZM1082.5 36H1077.5V38H1082.5V36ZM1072.5 36H1067.5V38H1072.5V36ZM1062.5 36H1057.5V38H1062.5V36ZM1052.5 36H1047.5V38H1052.5V36ZM1042.5 36H1037.5V38H1042.5V36ZM1032.5 36H1027.5V38H1032.5V36ZM1022.5 36H1017.5V38H1022.5V36ZM1012.5 36H1007.5V38H1012.5V36ZM1002.5 36H997.5V38H1002.5V36ZM992.5 36H987.5V38H992.5V36ZM982.5 36H977.5V38H982.5V36ZM972.5 36H967.5V38H972.5V36ZM962.5 36H957.5V38H962.5V36ZM952.5 36H947.5V38H952.5V36ZM942.5 36H937.5V38H942.5V36ZM932.5 36H927.5V38H932.5V36ZM922.5 36H917.5V38H922.5V36ZM912.5 36H907.5V38H912.5V36ZM902.5 36H897.5V38H902.5V36ZM892.5 36H887.5V38H892.5V36ZM882.5 36H877.5V38H882.5V36ZM872.5 36H867.5V38H872.5V36ZM862.5 36H857.5V38H862.5V36ZM852.5 36H847.5V38H852.5V36ZM842.5 36H837.5V38H842.5V36ZM832.5 36H827.5V38H832.5V36ZM822.5 36H817.5V38H822.5V36ZM812.5 36H807.5V38H812.5V36ZM802.5 36H797.5V38H802.5V36ZM792.5 36H787.5V38H792.5V36ZM782.5 36H777.5V38H782.5V36ZM772.5 36H767.5V38H772.5V36ZM762.5 36H757.5V38H762.5V36ZM752.5 36H747.5V38H752.5V36ZM742.5 36H737.5V38H742.5V36ZM732.5 36H727.5V38H732.5V36ZM722.5 36H717.5V38H722.5V36ZM712.5 36H707.5V38H712.5V36ZM702.5 36H697.5V38H702.5V36ZM692.5 36H687.5V38H692.5V36ZM682.5 36H677.5V38H682.5V36ZM672.5 36H667.5V38H672.5V36ZM662.5 36H657.5V38H662.5V36ZM652.5 36H647.5V38H652.5V36ZM642.5 36H637.5V38H642.5V36ZM632.5 36H627.5V38H632.5V36ZM622.5 36H617.5V38H622.5V36ZM612.5 36H607.5V38H612.5V36ZM602.5 36H597.5V38H602.5V36ZM592.5 36H587.5V38H592.5V36ZM582.5 36H577.5V38H582.5V36ZM572.5 36H567.5V38H572.5V36ZM562.5 36H557.5V38H562.5V36ZM552.5 36H547.5V38H552.5V36ZM542.5 36H537.5V38H542.5V36ZM532.5 36H527.5V38H532.5V36ZM522.5 36H517.5V38H522.5V36ZM512.5 36H507.5V38H512.5V36ZM502.5 36H497.5V38H502.5V36ZM492.5 36H487.5V38H492.5V36ZM482.5 36H477.5V38H482.5V36ZM472.5 36H467.5V38H472.5V36ZM462.5 36H457.5V38H462.5V36ZM452.5 36H447.5V38H452.5V36ZM442.5 36H437.5V38H442.5V36ZM432.5 36H427.5V38H432.5V36ZM422.5 36H417.5V38H422.5V36ZM412.5 36H407.5V38H412.5V36ZM402.5 36H397.5V38H402.5V36ZM392.5 36H387.5V38H392.5V36ZM382.5 36H377.5V38H382.5V36ZM372.5 36H367.5V38H372.5V36ZM362.5 36H357.5V38H362.5V36ZM352.5 36H347.5V38H352.5V36ZM342.5 36H337.5V38H342.5V36ZM332.5 36H327.5V38H332.5V36ZM322.5 36H317.5V38H322.5V36ZM312.5 36H307.5V38H312.5V36ZM302.5 36H297.5V38H302.5V36ZM292.5 36H287.5V38H292.5V36ZM282.5 36H277.5V38H282.5V36ZM272.5 36H267.5V38H272.5V36ZM262.5 36H257.5V38H262.5V36ZM252.5 36H247.5V38H252.5V36ZM242.5 36H237.5V38H242.5V36ZM232.5 36H227.5V38H232.5V36ZM222.5 36H217.5V38H222.5V36ZM212.5 36H207.5V38H212.5V36ZM202.5 36H197.5V38H202.5V36ZM192.5 36H187.5V38H192.5V36ZM182.5 36H177.5V38H182.5V36ZM172.5 36H167.5V38H172.5V36ZM162.5 36H157.5V38H162.5V36ZM152.5 36H147.5V38H152.5V36ZM142.5 36H137.5V38H142.5V36ZM132.5 36H127.5V38H132.5V36ZM122.5 36H117.5V38H122.5V36ZM112.5 36H107.5V38H112.5V36ZM102.5 36H97.5V38H102.5V36ZM92.5 36H87.5V38H92.5V36ZM82.5 36H77.5V38H82.5V36ZM72.5 36H67.5V38H72.5V36ZM62.5 36H57.5V38H62.5V36ZM52.5 36H47.5V38H52.5V36ZM42.5 36H37.5V38H42.5V36ZM32.5 36H27.5V38H32.5V36ZM22.5 36H17.5V38H22.5V36ZM12.5 36H7.49997V38H12.5V36ZM2.49999 36H0V38H2.49999V36Z" fill="white" fill-opacity="0.7" mask="url(#path-4-inside-2_171_8)"/>
<mask id="path-6-inside-3_171_8" fill="white">
<path d="M242 3H1198V135H242V3Z"/>
</mask>
<path d="M241.5 3V5.53846H242.5V3H241.5ZM241.5 10.6154V15.6923H242.5V10.6154H241.5ZM241.5 20.7692V25.8462H242.5V20.7692H241.5ZM241.5 30.9231V36H242.5V30.9231H241.5ZM241.5 41.0769V46.1538H242.5V41.0769H241.5ZM241.5 51.2308V56.3077H242.5V51.2308H241.5ZM241.5 61.3846V66.4615H242.5V61.3846H241.5ZM241.5 71.5385V76.6154H242.5V71.5385H241.5ZM241.5 81.6923V86.7692H242.5V81.6923H241.5ZM241.5 91.8461V96.9231H242.5V91.8461H241.5ZM241.5 102V107.077H242.5V102H241.5ZM241.5 112.154V117.231H242.5V112.154H241.5ZM241.5 122.308V127.385H242.5V122.308H241.5ZM241.5 132.462V135H242.5V132.462H241.5ZM1198.5 135V132.462H1197.5V135H1198.5ZM1198.5 127.385V122.308H1197.5V127.385H1198.5ZM1198.5 117.231V112.154H1197.5V117.231H1198.5ZM1198.5 107.077V102H1197.5V107.077H1198.5ZM1198.5 96.9231V91.8462H1197.5V96.9231H1198.5ZM1198.5 86.7692V81.6923H1197.5V86.7692H1198.5ZM1198.5 76.6154V71.5385H1197.5V76.6154H1198.5ZM1198.5 66.4615V61.3846H1197.5V66.4615H1198.5ZM1198.5 56.3077V51.2308H1197.5V56.3077H1198.5ZM1198.5 46.1539V41.0769H1197.5V46.1539H1198.5ZM1198.5 36V30.9231H1197.5V36H1198.5ZM1198.5 25.8462V20.7693H1197.5V25.8462H1198.5ZM1198.5 15.6923V10.6154H1197.5V15.6923H1198.5ZM1198.5 5.53849V3H1197.5V5.53849H1198.5ZM241 3V5.53846H243V3H241ZM241 10.6154V15.6923H243V10.6154H241ZM241 20.7692V25.8462H243V20.7692H241ZM241 30.9231V36H243V30.9231H241ZM241 41.0769V46.1538H243V41.0769H241ZM241 51.2308V56.3077H243V51.2308H241ZM241 61.3846V66.4615H243V61.3846H241ZM241 71.5385V76.6154H243V71.5385H241ZM241 81.6923V86.7692H243V81.6923H241ZM241 91.8461V96.9231H243V91.8461H241ZM241 102V107.077H243V102H241ZM241 112.154V117.231H243V112.154H241ZM241 122.308V127.385H243V122.308H241ZM241 132.462V135H243V132.462H241ZM1199 135V132.462H1197V135H1199ZM1199 127.385V122.308H1197V127.385H1199ZM1199 117.231V112.154H1197V117.231H1199ZM1199 107.077V102H1197V107.077H1199ZM1199 96.9231V91.8462H1197V96.9231H1199ZM1199 86.7692V81.6923H1197V86.7692H1199ZM1199 76.6154V71.5385H1197V76.6154H1199ZM1199 66.4615V61.3846H1197V66.4615H1199ZM1199 56.3077V51.2308H1197V56.3077H1199ZM1199 46.1539V41.0769H1197V46.1539H1199ZM1199 36V30.9231H1197V36H1199ZM1199 25.8462V20.7693H1197V25.8462H1199ZM1199 15.6923V10.6154H1197V15.6923H1199ZM1199 5.53849V3H1197V5.53849H1199Z" fill="white" fill-opacity="0.7" mask="url(#path-6-inside-3_171_8)"/>
<mask id="path-8-inside-4_171_8" fill="white">
<path d="M222 3H1218V135H222V3Z"/>
</mask>
<path d="M221.5 3V5.53846H222.5V3H221.5ZM221.5 10.6154V15.6923H222.5V10.6154H221.5ZM221.5 20.7692V25.8462H222.5V20.7692H221.5ZM221.5 30.9231V36H222.5V30.9231H221.5ZM221.5 41.0769V46.1538H222.5V41.0769H221.5ZM221.5 51.2308V56.3077H222.5V51.2308H221.5ZM221.5 61.3846V66.4615H222.5V61.3846H221.5ZM221.5 71.5385V76.6154H222.5V71.5385H221.5ZM221.5 81.6923V86.7692H222.5V81.6923H221.5ZM221.5 91.8461V96.9231H222.5V91.8461H221.5ZM221.5 102V107.077H222.5V102H221.5ZM221.5 112.154V117.231H222.5V112.154H221.5ZM221.5 122.308V127.385H222.5V122.308H221.5ZM221.5 132.462V135H222.5V132.462H221.5ZM1218.5 135V132.462H1217.5V135H1218.5ZM1218.5 127.385V122.308H1217.5V127.385H1218.5ZM1218.5 117.231V112.154H1217.5V117.231H1218.5ZM1218.5 107.077V102H1217.5V107.077H1218.5ZM1218.5 96.9231V91.8462H1217.5V96.9231H1218.5ZM1218.5 86.7692V81.6923H1217.5V86.7692H1218.5ZM1218.5 76.6154V71.5385H1217.5V76.6154H1218.5ZM1218.5 66.4615V61.3846H1217.5V66.4615H1218.5ZM1218.5 56.3077V51.2308H1217.5V56.3077H1218.5ZM1218.5 46.1539V41.0769H1217.5V46.1539H1218.5ZM1218.5 36V30.9231H1217.5V36H1218.5ZM1218.5 25.8462V20.7693H1217.5V25.8462H1218.5ZM1218.5 15.6923V10.6154H1217.5V15.6923H1218.5ZM1218.5 5.53849V3H1217.5V5.53849H1218.5ZM221 3V5.53846H223V3H221ZM221 10.6154V15.6923H223V10.6154H221ZM221 20.7692V25.8462H223V20.7692H221ZM221 30.9231V36H223V30.9231H221ZM221 41.0769V46.1538H223V41.0769H221ZM221 51.2308V56.3077H223V51.2308H221ZM221 61.3846V66.4615H223V61.3846H221ZM221 71.5385V76.6154H223V71.5385H221ZM221 81.6923V86.7692H223V81.6923H221ZM221 91.8461V96.9231H223V91.8461H221ZM221 102V107.077H223V102H221ZM221 112.154V117.231H223V112.154H221ZM221 122.308V127.385H223V122.308H221ZM221 132.462V135H223V132.462H221ZM1219 135V132.462H1217V135H1219ZM1219 127.385V122.308H1217V127.385H1219ZM1219 117.231V112.154H1217V117.231H1219ZM1219 107.077V102H1217V107.077H1219ZM1219 96.9231V91.8462H1217V96.9231H1219ZM1219 86.7692V81.6923H1217V86.7692H1219ZM1219 76.6154V71.5385H1217V76.6154H1219ZM1219 66.4615V61.3846H1217V66.4615H1219ZM1219 56.3077V51.2308H1217V56.3077H1219ZM1219 46.1539V41.0769H1217V46.1539H1219ZM1219 36V30.9231H1217V36H1219ZM1219 25.8462V20.7693H1217V25.8462H1219ZM1219 15.6923V10.6154H1217V15.6923H1219ZM1219 5.53849V3H1217V5.53849H1219Z" fill="white" fill-opacity="0.7" mask="url(#path-8-inside-4_171_8)"/>
</g>
<path d="M0 135.5H2.5V134.5H0V135.5ZM7.5 135.5H12.5V134.5H7.5V135.5ZM17.5 135.5H22.5V134.5H17.5V135.5ZM27.5 135.5H32.5V134.5H27.5V135.5ZM37.5 135.5H42.5V134.5H37.5V135.5ZM47.5 135.5H52.5V134.5H47.5V135.5ZM57.5 135.5H62.5V134.5H57.5V135.5ZM67.5 135.5H72.5V134.5H67.5V135.5ZM77.5 135.5H82.5V134.5H77.5V135.5ZM87.5 135.5H92.5V134.5H87.5V135.5ZM97.5 135.5H102.5V134.5H97.5V135.5ZM107.5 135.5H112.5V134.5H107.5V135.5ZM117.5 135.5H122.5V134.5H117.5V135.5ZM127.5 135.5H132.5V134.5H127.5V135.5ZM137.5 135.5H142.5V134.5H137.5V135.5ZM147.5 135.5H152.5V134.5H147.5V135.5ZM157.5 135.5H162.5V134.5H157.5V135.5ZM167.5 135.5H172.5V134.5H167.5V135.5ZM177.5 135.5H182.5V134.5H177.5V135.5ZM187.5 135.5H192.5V134.5H187.5V135.5ZM197.5 135.5H202.5V134.5H197.5V135.5ZM207.5 135.5H212.5V134.5H207.5V135.5ZM217.5 135.5H222.5V134.5H217.5V135.5ZM227.5 135.5H232.5V134.5H227.5V135.5ZM237.5 135.5H242.5V134.5H237.5V135.5ZM247.5 135.5H252.5V134.5H247.5V135.5ZM257.5 135.5H262.5V134.5H257.5V135.5ZM267.5 135.5H272.5V134.5H267.5V135.5ZM277.5 135.5H282.5V134.5H277.5V135.5ZM287.5 135.5H292.5V134.5H287.5V135.5ZM297.5 135.5H302.5V134.5H297.5V135.5ZM307.5 135.5H312.5V134.5H307.5V135.5ZM317.5 135.5H322.5V134.5H317.5V135.5ZM327.5 135.5H332.5V134.5H327.5V135.5ZM337.5 135.5H342.5V134.5H337.5V135.5ZM347.5 135.5H352.5V134.5H347.5V135.5ZM357.5 135.5H362.5V134.5H357.5V135.5ZM367.5 135.5H372.5V134.5H367.5V135.5ZM377.5 135.5H382.5V134.5H377.5V135.5ZM387.5 135.5H392.5V134.5H387.5V135.5ZM397.5 135.5H402.5V134.5H397.5V135.5ZM407.5 135.5H412.5V134.5H407.5V135.5ZM417.5 135.5H422.5V134.5H417.5V135.5ZM427.5 135.5H432.5V134.5H427.5V135.5ZM437.5 135.5H442.5V134.5H437.5V135.5ZM447.5 135.5H452.5V134.5H447.5V135.5ZM457.5 135.5H462.5V134.5H457.5V135.5ZM467.5 135.5H472.5V134.5H467.5V135.5ZM477.5 135.5H482.5V134.5H477.5V135.5ZM487.5 135.5H492.5V134.5H487.5V135.5ZM497.5 135.5H502.5V134.5H497.5V135.5ZM507.5 135.5H512.5V134.5H507.5V135.5ZM517.5 135.5H522.5V134.5H517.5V135.5ZM527.5 135.5H532.5V134.5H527.5V135.5ZM537.5 135.5H542.5V134.5H537.5V135.5ZM547.5 135.5H552.5V134.5H547.5V135.5ZM557.5 135.5H562.5V134.5H557.5V135.5ZM567.5 135.5H572.5V134.5H567.5V135.5ZM577.5 135.5H582.5V134.5H577.5V135.5ZM587.5 135.5H592.5V134.5H587.5V135.5ZM597.5 135.5H602.5V134.5H597.5V135.5ZM607.5 135.5H612.5V134.5H607.5V135.5ZM617.5 135.5H622.5V134.5H617.5V135.5ZM627.5 135.5H632.5V134.5H627.5V135.5ZM637.5 135.5H642.5V134.5H637.5V135.5ZM647.5 135.5H652.5V134.5H647.5V135.5ZM657.5 135.5H662.5V134.5H657.5V135.5ZM667.5 135.5H672.5V134.5H667.5V135.5ZM677.5 135.5H682.5V134.5H677.5V135.5ZM687.5 135.5H692.5V134.5H687.5V135.5ZM697.5 135.5H702.5V134.5H697.5V135.5ZM707.5 135.5H712.5V134.5H707.5V135.5ZM717.5 135.5H722.5V134.5H717.5V135.5ZM727.5 135.5H732.5V134.5H727.5V135.5ZM737.5 135.5H742.5V134.5H737.5V135.5ZM747.5 135.5H752.5V134.5H747.5V135.5ZM757.5 135.5H762.5V134.5H757.5V135.5ZM767.5 135.5H772.5V134.5H767.5V135.5ZM777.5 135.5H782.5V134.5H777.5V135.5ZM787.5 135.5H792.5V134.5H787.5V135.5ZM797.5 135.5H802.5V134.5H797.5V135.5ZM807.5 135.5H812.5V134.5H807.5V135.5ZM817.5 135.5H822.5V134.5H817.5V135.5ZM827.5 135.5H832.5V134.5H827.5V135.5ZM837.5 135.5H842.5V134.5H837.5V135.5ZM847.5 135.5H852.5V134.5H847.5V135.5ZM857.5 135.5H862.5V134.5H857.5V135.5ZM867.5 135.5H872.5V134.5H867.5V135.5ZM877.5 135.5H882.5V134.5H877.5V135.5ZM887.5 135.5H892.5V134.5H887.5V135.5ZM897.5 135.5H902.5V134.5H897.5V135.5ZM907.5 135.5H912.5V134.5H907.5V135.5ZM917.5 135.5H922.5V134.5H917.5V135.5ZM927.5 135.5H932.5V134.5H927.5V135.5ZM937.5 135.5H942.5V134.5H937.5V135.5ZM947.5 135.5H952.5V134.5H947.5V135.5ZM957.5 135.5H962.5V134.5H957.5V135.5ZM967.5 135.5H972.5V134.5H967.5V135.5ZM977.5 135.5H982.5V134.5H977.5V135.5ZM987.5 135.5H992.5V134.5H987.5V135.5ZM997.5 135.5H1002.5V134.5H997.5V135.5ZM1007.5 135.5H1012.5V134.5H1007.5V135.5ZM1017.5 135.5H1022.5V134.5H1017.5V135.5ZM1027.5 135.5H1032.5V134.5H1027.5V135.5ZM1037.5 135.5H1042.5V134.5H1037.5V135.5ZM1047.5 135.5H1052.5V134.5H1047.5V135.5ZM1057.5 135.5H1062.5V134.5H1057.5V135.5ZM1067.5 135.5H1072.5V134.5H1067.5V135.5ZM1077.5 135.5H1082.5V134.5H1077.5V135.5ZM1087.5 135.5H1092.5V134.5H1087.5V135.5ZM1097.5 135.5H1102.5V134.5H1097.5V135.5ZM1107.5 135.5H1112.5V134.5H1107.5V135.5ZM1117.5 135.5H1122.5V134.5H1117.5V135.5ZM1127.5 135.5H1132.5V134.5H1127.5V135.5ZM1137.5 135.5H1142.5V134.5H1137.5V135.5ZM1147.5 135.5H1152.5V134.5H1147.5V135.5ZM1157.5 135.5H1162.5V134.5H1157.5V135.5ZM1167.5 135.5H1172.5V134.5H1167.5V135.5ZM1177.5 135.5H1182.5V134.5H1177.5V135.5ZM1187.5 135.5H1192.5V134.5H1187.5V135.5ZM1197.5 135.5H1202.5V134.5H1197.5V135.5ZM1207.5 135.5H1212.5V134.5H1207.5V135.5ZM1217.5 135.5H1222.5V134.5H1217.5V135.5ZM1227.5 135.5H1232.5V134.5H1227.5V135.5ZM1237.5 135.5H1242.5V134.5H1237.5V135.5ZM1247.5 135.5H1252.5V134.5H1247.5V135.5ZM1257.5 135.5H1262.5V134.5H1257.5V135.5ZM1267.5 135.5H1272.5V134.5H1267.5V135.5ZM1277.5 135.5H1282.5V134.5H1277.5V135.5ZM1287.5 135.5H1292.5V134.5H1287.5V135.5ZM1297.5 135.5H1302.5V134.5H1297.5V135.5ZM1307.5 135.5H1312.5V134.5H1307.5V135.5ZM1317.5 135.5H1322.5V134.5H1317.5V135.5ZM1327.5 135.5H1332.5V134.5H1327.5V135.5ZM1337.5 135.5H1342.5V134.5H1337.5V135.5ZM1347.5 135.5H1352.5V134.5H1347.5V135.5ZM1357.5 135.5H1362.5V134.5H1357.5V135.5ZM1367.5 135.5H1372.5V134.5H1367.5V135.5ZM1377.5 135.5H1382.5V134.5H1377.5V135.5ZM1387.5 135.5H1392.5V134.5H1387.5V135.5ZM1397.5 135.5H1402.5V134.5H1397.5V135.5ZM1407.5 135.5H1412.5V134.5H1407.5V135.5ZM1417.5 135.5H1422.5V134.5H1417.5V135.5ZM1427.5 135.5H1432.5V134.5H1427.5V135.5ZM1437.5 135.5H1440V134.5H1437.5V135.5ZM1440 2.5H1437.5V3.5H1440V2.5ZM1432.5 2.5H1427.5V3.5H1432.5V2.5ZM1422.5 2.5H1417.5V3.5H1422.5V2.5ZM1412.5 2.5H1407.5V3.5H1412.5V2.5ZM1402.5 2.5H1397.5V3.5H1402.5V2.5ZM1392.5 2.5H1387.5V3.5H1392.5V2.5ZM1382.5 2.5H1377.5V3.5H1382.5V2.5ZM1372.5 2.5H1367.5V3.5H1372.5V2.5ZM1362.5 2.5H1357.5V3.5H1362.5V2.5ZM1352.5 2.5H1347.5V3.5H1352.5V2.5ZM1342.5 2.5H1337.5V3.5H1342.5V2.5ZM1332.5 2.5H1327.5V3.5H1332.5V2.5ZM1322.5 2.5H1317.5V3.5H1322.5V2.5ZM1312.5 2.5H1307.5V3.5H1312.5V2.5ZM1302.5 2.5H1297.5V3.5H1302.5V2.5ZM1292.5 2.5H1287.5V3.5H1292.5V2.5ZM1282.5 2.5H1277.5V3.5H1282.5V2.5ZM1272.5 2.5H1267.5V3.5H1272.5V2.5ZM1262.5 2.5H1257.5V3.5H1262.5V2.5ZM1252.5 2.5H1247.5V3.5H1252.5V2.5ZM1242.5 2.5H1237.5V3.5H1242.5V2.5ZM1232.5 2.5H1227.5V3.5H1232.5V2.5ZM1222.5 2.5H1217.5V3.5H1222.5V2.5ZM1212.5 2.5H1207.5V3.5H1212.5V2.5ZM1202.5 2.5H1197.5V3.5H1202.5V2.5ZM1192.5 2.5H1187.5V3.5H1192.5V2.5ZM1182.5 2.5H1177.5V3.5H1182.5V2.5ZM1172.5 2.5H1167.5V3.5H1172.5V2.5ZM1162.5 2.5H1157.5V3.5H1162.5V2.5ZM1152.5 2.5H1147.5V3.5H1152.5V2.5ZM1142.5 2.5H1137.5V3.5H1142.5V2.5ZM1132.5 2.5H1127.5V3.5H1132.5V2.5ZM1122.5 2.5H1117.5V3.5H1122.5V2.5ZM1112.5 2.5H1107.5V3.5H1112.5V2.5ZM1102.5 2.5H1097.5V3.5H1102.5V2.5ZM1092.5 2.5H1087.5V3.5H1092.5V2.5ZM1082.5 2.5H1077.5V3.5H1082.5V2.5ZM1072.5 2.5H1067.5V3.5H1072.5V2.5ZM1062.5 2.5H1057.5V3.5H1062.5V2.5ZM1052.5 2.5H1047.5V3.5H1052.5V2.5ZM1042.5 2.5H1037.5V3.5H1042.5V2.5ZM1032.5 2.5H1027.5V3.5H1032.5V2.5ZM1022.5 2.5H1017.5V3.5H1022.5V2.5ZM1012.5 2.5H1007.5V3.5H1012.5V2.5ZM1002.5 2.5H997.5V3.5H1002.5V2.5ZM992.5 2.5H987.5V3.5H992.5V2.5ZM982.5 2.5H977.5V3.5H982.5V2.5ZM972.5 2.5H967.5V3.5H972.5V2.5ZM962.5 2.5H957.5V3.5H962.5V2.5ZM952.5 2.5H947.5V3.5H952.5V2.5ZM942.5 2.5H937.5V3.5H942.5V2.5ZM932.5 2.5H927.5V3.5H932.5V2.5ZM922.5 2.5H917.5V3.5H922.5V2.5ZM912.5 2.5H907.5V3.5H912.5V2.5ZM902.5 2.5H897.5V3.5H902.5V2.5ZM892.5 2.5H887.5V3.5H892.5V2.5ZM882.5 2.5H877.5V3.5H882.5V2.5ZM872.5 2.5H867.5V3.5H872.5V2.5ZM862.5 2.5H857.5V3.5H862.5V2.5ZM852.5 2.5H847.5V3.5H852.5V2.5ZM842.5 2.5H837.5V3.5H842.5V2.5ZM832.5 2.5H827.5V3.5H832.5V2.5ZM822.5 2.5H817.5V3.5H822.5V2.5ZM812.5 2.5H807.5V3.5H812.5V2.5ZM802.5 2.5H797.5V3.5H802.5V2.5ZM792.5 2.5H787.5V3.5H792.5V2.5ZM782.5 2.5H777.5V3.5H782.5V2.5ZM772.5 2.5H767.5V3.5H772.5V2.5ZM762.5 2.5H757.5V3.5H762.5V2.5ZM752.5 2.5H747.5V3.5H752.5V2.5ZM742.5 2.5H737.5V3.5H742.5V2.5ZM732.5 2.5H727.5V3.5H732.5V2.5ZM722.5 2.5H717.5V3.5H722.5V2.5ZM712.5 2.5H707.5V3.5H712.5V2.5ZM702.5 2.5H697.5V3.5H702.5V2.5ZM692.5 2.5H687.5V3.5H692.5V2.5ZM682.5 2.5H677.5V3.5H682.5V2.5ZM672.5 2.5H667.5V3.5H672.5V2.5ZM662.5 2.5H657.5V3.5H662.5V2.5ZM652.5 2.5H647.5V3.5H652.5V2.5ZM642.5 2.5H637.5V3.5H642.5V2.5ZM632.5 2.5H627.5V3.5H632.5V2.5ZM622.5 2.5H617.5V3.5H622.5V2.5ZM612.5 2.5H607.5V3.5H612.5V2.5ZM602.5 2.5H597.5V3.5H602.5V2.5ZM592.5 2.5H587.5V3.5H592.5V2.5ZM582.5 2.5H577.5V3.5H582.5V2.5ZM572.5 2.5H567.5V3.5H572.5V2.5ZM562.5 2.5H557.5V3.5H562.5V2.5ZM552.5 2.5H547.5V3.5H552.5V2.5ZM542.5 2.5H537.5V3.5H542.5V2.5ZM532.5 2.5H527.5V3.5H532.5V2.5ZM522.5 2.5H517.5V3.5H522.5V2.5ZM512.5 2.5H507.5V3.5H512.5V2.5ZM502.5 2.5H497.5V3.5H502.5V2.5ZM492.5 2.5H487.5V3.5H492.5V2.5ZM482.5 2.5H477.5V3.5H482.5V2.5ZM472.5 2.5H467.5V3.5H472.5V2.5ZM462.5 2.5H457.5V3.5H462.5V2.5ZM452.5 2.5H447.5V3.5H452.5V2.5ZM442.5 2.5H437.5V3.5H442.5V2.5ZM432.5 2.5H427.5V3.5H432.5V2.5ZM422.5 2.5H417.5V3.5H422.5V2.5ZM412.5 2.5H407.5V3.5H412.5V2.5ZM402.5 2.5H397.5V3.5H402.5V2.5ZM392.5 2.5H387.5V3.5H392.5V2.5ZM382.5 2.5H377.5V3.5H382.5V2.5ZM372.5 2.5H367.5V3.5H372.5V2.5ZM362.5 2.5H357.5V3.5H362.5V2.5ZM352.5 2.5H347.5V3.5H352.5V2.5ZM342.5 2.5H337.5V3.5H342.5V2.5ZM332.5 2.5H327.5V3.5H332.5V2.5ZM322.5 2.5H317.5V3.5H322.5V2.5ZM312.5 2.5H307.5V3.5H312.5V2.5ZM302.5 2.5H297.5V3.5H302.5V2.5ZM292.5 2.5H287.5V3.5H292.5V2.5ZM282.5 2.5H277.5V3.5H282.5V2.5ZM272.5 2.5H267.5V3.5H272.5V2.5ZM262.5 2.5H257.5V3.5H262.5V2.5ZM252.5 2.5H247.5V3.5H252.5V2.5ZM242.5 2.5H237.5V3.5H242.5V2.5ZM232.5 2.5H227.5V3.5H232.5V2.5ZM222.5 2.5H217.5V3.5H222.5V2.5ZM212.5 2.5H207.5V3.5H212.5V2.5ZM202.5 2.5H197.5V3.5H202.5V2.5ZM192.5 2.5H187.5V3.5H192.5V2.5ZM182.5 2.5H177.5V3.5H182.5V2.5ZM172.5 2.5H167.5V3.5H172.5V2.5ZM162.5 2.5H157.5V3.5H162.5V2.5ZM152.5 2.5H147.5V3.5H152.5V2.5ZM142.5 2.5H137.5V3.5H142.5V2.5ZM132.5 2.5H127.5V3.5H132.5V2.5ZM122.5 2.5H117.5V3.5H122.5V2.5ZM112.5 2.5H107.5V3.5H112.5V2.5ZM102.5 2.5H97.5V3.5H102.5V2.5ZM92.5 2.5H87.5V3.5H92.5V2.5ZM82.5 2.5H77.5V3.5H82.5V2.5ZM72.5 2.5H67.5V3.5H72.5V2.5ZM62.5 2.5H57.5V3.5H62.5V2.5ZM52.5 2.5H47.5V3.5H52.5V2.5ZM42.5 2.5H37.5V3.5H42.5V2.5ZM32.5 2.5H27.5V3.5H32.5V2.5ZM22.5 2.5H17.5V3.5H22.5V2.5ZM12.5 2.5H7.49997V3.5H12.5V2.5ZM2.49999 2.5H0V3.5H2.49999V2.5ZM0 136H2.5V134H0V136ZM7.5 136H12.5V134H7.5V136ZM17.5 136H22.5V134H17.5V136ZM27.5 136H32.5V134H27.5V136ZM37.5 136H42.5V134H37.5V136ZM47.5 136H52.5V134H47.5V136ZM57.5 136H62.5V134H57.5V136ZM67.5 136H72.5V134H67.5V136ZM77.5 136H82.5V134H77.5V136ZM87.5 136H92.5V134H87.5V136ZM97.5 136H102.5V134H97.5V136ZM107.5 136H112.5V134H107.5V136ZM117.5 136H122.5V134H117.5V136ZM127.5 136H132.5V134H127.5V136ZM137.5 136H142.5V134H137.5V136ZM147.5 136H152.5V134H147.5V136ZM157.5 136H162.5V134H157.5V136ZM167.5 136H172.5V134H167.5V136ZM177.5 136H182.5V134H177.5V136ZM187.5 136H192.5V134H187.5V136ZM197.5 136H202.5V134H197.5V136ZM207.5 136H212.5V134H207.5V136ZM217.5 136H222.5V134H217.5V136ZM227.5 136H232.5V134H227.5V136ZM237.5 136H242.5V134H237.5V136ZM247.5 136H252.5V134H247.5V136ZM257.5 136H262.5V134H257.5V136ZM267.5 136H272.5V134H267.5V136ZM277.5 136H282.5V134H277.5V136ZM287.5 136H292.5V134H287.5V136ZM297.5 136H302.5V134H297.5V136ZM307.5 136H312.5V134H307.5V136ZM317.5 136H322.5V134H317.5V136ZM327.5 136H332.5V134H327.5V136ZM337.5 136H342.5V134H337.5V136ZM347.5 136H352.5V134H347.5V136ZM357.5 136H362.5V134H357.5V136ZM367.5 136H372.5V134H367.5V136ZM377.5 136H382.5V134H377.5V136ZM387.5 136H392.5V134H387.5V136ZM397.5 136H402.5V134H397.5V136ZM407.5 136H412.5V134H407.5V136ZM417.5 136H422.5V134H417.5V136ZM427.5 136H432.5V134H427.5V136ZM437.5 136H442.5V134H437.5V136ZM447.5 136H452.5V134H447.5V136ZM457.5 136H462.5V134H457.5V136ZM467.5 136H472.5V134H467.5V136ZM477.5 136H482.5V134H477.5V136ZM487.5 136H492.5V134H487.5V136ZM497.5 136H502.5V134H497.5V136ZM507.5 136H512.5V134H507.5V136ZM517.5 136H522.5V134H517.5V136ZM527.5 136H532.5V134H527.5V136ZM537.5 136H542.5V134H537.5V136ZM547.5 136H552.5V134H547.5V136ZM557.5 136H562.5V134H557.5V136ZM567.5 136H572.5V134H567.5V136ZM577.5 136H582.5V134H577.5V136ZM587.5 136H592.5V134H587.5V136ZM597.5 136H602.5V134H597.5V136ZM607.5 136H612.5V134H607.5V136ZM617.5 136H622.5V134H617.5V136ZM627.5 136H632.5V134H627.5V136ZM637.5 136H642.5V134H637.5V136ZM647.5 136H652.5V134H647.5V136ZM657.5 136H662.5V134H657.5V136ZM667.5 136H672.5V134H667.5V136ZM677.5 136H682.5V134H677.5V136ZM687.5 136H692.5V134H687.5V136ZM697.5 136H702.5V134H697.5V136ZM707.5 136H712.5V134H707.5V136ZM717.5 136H722.5V134H717.5V136ZM727.5 136H732.5V134H727.5V136ZM737.5 136H742.5V134H737.5V136ZM747.5 136H752.5V134H747.5V136ZM757.5 136H762.5V134H757.5V136ZM767.5 136H772.5V134H767.5V136ZM777.5 136H782.5V134H777.5V136ZM787.5 136H792.5V134H787.5V136ZM797.5 136H802.5V134H797.5V136ZM807.5 136H812.5V134H807.5V136ZM817.5 136H822.5V134H817.5V136ZM827.5 136H832.5V134H827.5V136ZM837.5 136H842.5V134H837.5V136ZM847.5 136H852.5V134H847.5V136ZM857.5 136H862.5V134H857.5V136ZM867.5 136H872.5V134H867.5V136ZM877.5 136H882.5V134H877.5V136ZM887.5 136H892.5V134H887.5V136ZM897.5 136H902.5V134H897.5V136ZM907.5 136H912.5V134H907.5V136ZM917.5 136H922.5V134H917.5V136ZM927.5 136H932.5V134H927.5V136ZM937.5 136H942.5V134H937.5V136ZM947.5 136H952.5V134H947.5V136ZM957.5 136H962.5V134H957.5V136ZM967.5 136H972.5V134H967.5V136ZM977.5 136H982.5V134H977.5V136ZM987.5 136H992.5V134H987.5V136ZM997.5 136H1002.5V134H997.5V136ZM1007.5 136H1012.5V134H1007.5V136ZM1017.5 136H1022.5V134H1017.5V136ZM1027.5 136H1032.5V134H1027.5V136ZM1037.5 136H1042.5V134H1037.5V136ZM1047.5 136H1052.5V134H1047.5V136ZM1057.5 136H1062.5V134H1057.5V136ZM1067.5 136H1072.5V134H1067.5V136ZM1077.5 136H1082.5V134H1077.5V136ZM1087.5 136H1092.5V134H1087.5V136ZM1097.5 136H1102.5V134H1097.5V136ZM1107.5 136H1112.5V134H1107.5V136ZM1117.5 136H1122.5V134H1117.5V136ZM1127.5 136H1132.5V134H1127.5V136ZM1137.5 136H1142.5V134H1137.5V136ZM1147.5 136H1152.5V134H1147.5V136ZM1157.5 136H1162.5V134H1157.5V136ZM1167.5 136H1172.5V134H1167.5V136ZM1177.5 136H1182.5V134H1177.5V136ZM1187.5 136H1192.5V134H1187.5V136ZM1197.5 136H1202.5V134H1197.5V136ZM1207.5 136H1212.5V134H1207.5V136ZM1217.5 136H1222.5V134H1217.5V136ZM1227.5 136H1232.5V134H1227.5V136ZM1237.5 136H1242.5V134H1237.5V136ZM1247.5 136H1252.5V134H1247.5V136ZM1257.5 136H1262.5V134H1257.5V136ZM1267.5 136H1272.5V134H1267.5V136ZM1277.5 136H1282.5V134H1277.5V136ZM1287.5 136H1292.5V134H1287.5V136ZM1297.5 136H1302.5V134H1297.5V136ZM1307.5 136H1312.5V134H1307.5V136ZM1317.5 136H1322.5V134H1317.5V136ZM1327.5 136H1332.5V134H1327.5V136ZM1337.5 136H1342.5V134H1337.5V136ZM1347.5 136H1352.5V134H1347.5V136ZM1357.5 136H1362.5V134H1357.5V136ZM1367.5 136H1372.5V134H1367.5V136ZM1377.5 136H1382.5V134H1377.5V136ZM1387.5 136H1392.5V134H1387.5V136ZM1397.5 136H1402.5V134H1397.5V136ZM1407.5 136H1412.5V134H1407.5V136ZM1417.5 136H1422.5V134H1417.5V136ZM1427.5 136H1432.5V134H1427.5V136ZM1437.5 136H1440V134H1437.5V136ZM1440 2H1437.5V4H1440V2ZM1432.5 2H1427.5V4H1432.5V2ZM1422.5 2H1417.5V4H1422.5V2ZM1412.5 2H1407.5V4H1412.5V2ZM1402.5 2H1397.5V4H1402.5V2ZM1392.5 2H1387.5V4H1392.5V2ZM1382.5 2H1377.5V4H1382.5V2ZM1372.5 2H1367.5V4H1372.5V2ZM1362.5 2H1357.5V4H1362.5V2ZM1352.5 2H1347.5V4H1352.5V2ZM1342.5 2H1337.5V4H1342.5V2ZM1332.5 2H1327.5V4H1332.5V2ZM1322.5 2H1317.5V4H1322.5V2ZM1312.5 2H1307.5V4H1312.5V2ZM1302.5 2H1297.5V4H1302.5V2ZM1292.5 2H1287.5V4H1292.5V2ZM1282.5 2H1277.5V4H1282.5V2ZM1272.5 2H1267.5V4H1272.5V2ZM1262.5 2H1257.5V4H1262.5V2ZM1252.5 2H1247.5V4H1252.5V2ZM1242.5 2H1237.5V4H1242.5V2ZM1232.5 2H1227.5V4H1232.5V2ZM1222.5 2H1217.5V4H1222.5V2ZM1212.5 2H1207.5V4H1212.5V2ZM1202.5 2H1197.5V4H1202.5V2ZM1192.5 2H1187.5V4H1192.5V2ZM1182.5 2H1177.5V4H1182.5V2ZM1172.5 2H1167.5V4H1172.5V2ZM1162.5 2H1157.5V4H1162.5V2ZM1152.5 2H1147.5V4H1152.5V2ZM1142.5 2H1137.5V4H1142.5V2ZM1132.5 2H1127.5V4H1132.5V2ZM1122.5 2H1117.5V4H1122.5V2ZM1112.5 2H1107.5V4H1112.5V2ZM1102.5 2H1097.5V4H1102.5V2ZM1092.5 2H1087.5V4H1092.5V2ZM1082.5 2H1077.5V4H1082.5V2ZM1072.5 2H1067.5V4H1072.5V2ZM1062.5 2H1057.5V4H1062.5V2ZM1052.5 2H1047.5V4H1052.5V2ZM1042.5 2H1037.5V4H1042.5V2ZM1032.5 2H1027.5V4H1032.5V2ZM1022.5 2H1017.5V4H1022.5V2ZM1012.5 2H1007.5V4H1012.5V2ZM1002.5 2H997.5V4H1002.5V2ZM992.5 2H987.5V4H992.5V2ZM982.5 2H977.5V4H982.5V2ZM972.5 2H967.5V4H972.5V2ZM962.5 2H957.5V4H962.5V2ZM952.5 2H947.5V4H952.5V2ZM942.5 2H937.5V4H942.5V2ZM932.5 2H927.5V4H932.5V2ZM922.5 2H917.5V4H922.5V2ZM912.5 2H907.5V4H912.5V2ZM902.5 2H897.5V4H902.5V2ZM892.5 2H887.5V4H892.5V2ZM882.5 2H877.5V4H882.5V2ZM872.5 2H867.5V4H872.5V2ZM862.5 2H857.5V4H862.5V2ZM852.5 2H847.5V4H852.5V2ZM842.5 2H837.5V4H842.5V2ZM832.5 2H827.5V4H832.5V2ZM822.5 2H817.5V4H822.5V2ZM812.5 2H807.5V4H812.5V2ZM802.5 2H797.5V4H802.5V2ZM792.5 2H787.5V4H792.5V2ZM782.5 2H777.5V4H782.5V2ZM772.5 2H767.5V4H772.5V2ZM762.5 2H757.5V4H762.5V2ZM752.5 2H747.5V4H752.5V2ZM742.5 2H737.5V4H742.5V2ZM732.5 2H727.5V4H732.5V2ZM722.5 2H717.5V4H722.5V2ZM712.5 2H707.5V4H712.5V2ZM702.5 2H697.5V4H702.5V2ZM692.5 2H687.5V4H692.5V2ZM682.5 2H677.5V4H682.5V2ZM672.5 2H667.5V4H672.5V2ZM662.5 2H657.5V4H662.5V2ZM652.5 2H647.5V4H652.5V2ZM642.5 2H637.5V4H642.5V2ZM632.5 2H627.5V4H632.5V2ZM622.5 2H617.5V4H622.5V2ZM612.5 2H607.5V4H612.5V2ZM602.5 2H597.5V4H602.5V2ZM592.5 2H587.5V4H592.5V2ZM582.5 2H577.5V4H582.5V2ZM572.5 2H567.5V4H572.5V2ZM562.5 2H557.5V4H562.5V2ZM552.5 2H547.5V4H552.5V2ZM542.5 2H537.5V4H542.5V2ZM532.5 2H527.5V4H532.5V2ZM522.5 2H517.5V4H522.5V2ZM512.5 2H507.5V4H512.5V2ZM502.5 2H497.5V4H502.5V2ZM492.5 2H487.5V4H492.5V2ZM482.5 2H477.5V4H482.5V2ZM472.5 2H467.5V4H472.5V2ZM462.5 2H457.5V4H462.5V2ZM452.5 2H447.5V4H452.5V2ZM442.5 2H437.5V4H442.5V2ZM432.5 2H427.5V4H432.5V2ZM422.5 2H417.5V4H422.5V2ZM412.5 2H407.5V4H412.5V2ZM402.5 2H397.5V4H402.5V2ZM392.5 2H387.5V4H392.5V2ZM382.5 2H377.5V4H382.5V2ZM372.5 2H367.5V4H372.5V2ZM362.5 2H357.5V4H362.5V2ZM352.5 2H347.5V4H352.5V2ZM342.5 2H337.5V4H342.5V2ZM332.5 2H327.5V4H332.5V2ZM322.5 2H317.5V4H322.5V2ZM312.5 2H307.5V4H312.5V2ZM302.5 2H297.5V4H302.5V2ZM292.5 2H287.5V4H292.5V2ZM282.5 2H277.5V4H282.5V2ZM272.5 2H267.5V4H272.5V2ZM262.5 2H257.5V4H262.5V2ZM252.5 2H247.5V4H252.5V2ZM242.5 2H237.5V4H242.5V2ZM232.5 2H227.5V4H232.5V2ZM222.5 2H217.5V4H222.5V2ZM212.5 2H207.5V4H212.5V2ZM202.5 2H197.5V4H202.5V2ZM192.5 2H187.5V4H192.5V2ZM182.5 2H177.5V4H182.5V2ZM172.5 2H167.5V4H172.5V2ZM162.5 2H157.5V4H162.5V2ZM152.5 2H147.5V4H152.5V2ZM142.5 2H137.5V4H142.5V2ZM132.5 2H127.5V4H132.5V2ZM122.5 2H117.5V4H122.5V2ZM112.5 2H107.5V4H112.5V2ZM102.5 2H97.5V4H102.5V2ZM92.5 2H87.5V4H92.5V2ZM82.5 2H77.5V4H82.5V2ZM72.5 2H67.5V4H72.5V2ZM62.5 2H57.5V4H62.5V2ZM52.5 2H47.5V4H52.5V2ZM42.5 2H37.5V4H42.5V2ZM32.5 2H27.5V4H32.5V2ZM22.5 2H17.5V4H22.5V2ZM12.5 2H7.49997V4H12.5V2ZM2.49999 2H0V4H2.49999V2Z" fill="white" fill-opacity="0.7" mask="url(#path-2-inside-1_171_8)"/>
</g>
<defs>
<clipPath id="clip0_171_8">
<rect width="1440" height="135" fill="white"/>
</clipPath>
<clipPath id="clip1_171_8">
<path d="M0 3H1440V135H0V3Z" fill="white"/>
</clipPath>
</defs>
</svg>
